<?xml version="1.0" encoding="utf-8"?>
<!-- Generator: Adobe Illustrator 22.1.0, SVG Export Plug-In . SVG Version: 6.00 Build 0)  -->
<svg version="1.1" id="Layer_2_1_" xmlns="http://www.w3.org/2000/svg" xmlns:xlink="http://www.w3.org/1999/xlink" x="0px" y="0px"
	 viewBox="0 0 2053 1828" style="enable-background:new 0 0 2053 1828;" xml:space="preserve">
<style type="text/css">
	.st0{fill:#333333;}
	.st1{fill:#5E5F5F;}
	.st2{fill:#4D4D4D;}
	.st3{fill:#666666;}
	.st4{fill:#B3B3B3;}
	.st5{fill:url(#SVGID_1_);}
	.st6{fill:url(#SVGID_2_);}
	.st7{fill:url(#SVGID_3_);}
	.st8{fill:url(#SVGID_4_);}
	.st9{fill:url(#SVGID_5_);}
	.st10{fill:url(#SVGID_6_);}
	.st11{fill:#B1B3BA;}
	.st12{fill:url(#SVGID_7_);}
	.st13{fill:url(#SVGID_8_);}
	.st14{fill:url(#SVGID_9_);}
	.st15{fill:url(#SVGID_10_);}
	.st16{fill:url(#SVGID_11_);}
	.st17{fill:url(#SVGID_12_);}
	.st18{fill:url(#SVGID_13_);}
	.st19{fill:url(#SVGID_14_);}
	.st20{fill:#1A1A1B;}
	.st21{fill:#29ABE2;}
	.st22{fill:#F7931E;}
	.st23{fill:#ED1C24;}
	.st24{fill:#BBBDBF;}
	.st25{fill:#000001;}
	.st26{fill:#E4E5E5;}
	.st27{fill:#FFFFFF;}
	.st28{fill:#CAC9CA;}
	.st29{fill:#FFCA05;}
	.st30{font-family:'ArialMT';}
	.st31{font-size:148.9146px;}
	.st32{fill:#EC1C24;}
	.st33{fill:#F6DCBE;}
	.st34{fill:#FDCF9D;}
	.st35{fill:#9F1D21;}
	.st36{fill:#5D0000;}
	.st37{fill:#C1272D;}
	.st38{enable-background:new    ;}
	.st39{fill:#FFFF00;}
	.st40{fill:#D0D2D3;}
	.st41{fill:#E6E7E8;}
	.st42{fill:#447491;}
	.st43{fill:#009245;}
	.st44{fill:#FF931E;}
	.st45{fill:#0071BC;}
</style>
<g>
	<g>
		<polygon class="st0" points="1038.6,955.9 1012,959 1004.1,890.5 1100.3,879.4 1108.2,947.8 1081.6,950.9 1245.3,1230.2 
			1243.2,1231.5 1207.9,1235.6 1086.4,1028.3 1111.8,1246.8 1077,1250.8 1051.7,1032.3 980.9,1261.9 945.6,1266 943.2,1265.3 		"/>
		<polygon class="st1" points="679.5,673.7 696,680.8 783.3,671.1 791,670.2 791.9,677.5 794.7,701.6 796.2,714.4 788.4,715.3 
			701.6,729.1 688,746.9 		"/>
		<polygon class="st0" points="872.5,717.3 740.5,732.6 733,668.7 865.1,653.4 		"/>
		
			<rect x="857.9" y="489.1" transform="matrix(0.9933 -0.1152 0.1152 0.9933 -59.5943 120.2109)" class="st0" width="304.5" height="173.1"/>
		<polygon class="st2" points="1026.1,818.2 1031.8,817.6 1357.1,779.8 1362.9,779.2 1362.2,773.5 1349.2,661.7 1348.6,656 
			1342.9,656.6 1017.5,694.4 1011.8,695.1 1012.4,700.8 1025.4,812.5 		"/>
		
			<rect x="966.4" y="664.5" transform="matrix(0.9933 -0.1152 0.1152 0.9933 -78.162 135.1539)" class="st0" width="327.5" height="158.5"/>
		<path class="st2" d="M878.6,945.4L1235,904c22.3-2.6,38.3-22.8,35.7-45.1l-27.5-237.2c-2.6-22.3-22.8-38.3-45-35.7l-356.4,41.4
			c-22.3,2.6-38.3,22.8-35.7,45.1l27.5,237.2C836.1,932,856.3,947.9,878.6,945.4z"/>
		<g>
			<path class="st0" d="M1063.1,433.7c7.5,64.5,65.8,110.7,130.3,103.2s110.7-65.8,103.2-130.3s-65.8-110.7-130.3-103.2
				C1101.8,310.9,1055.6,369.2,1063.1,433.7z"/>
			<path class="st3" d="M1160.7,255.5c90.4-10.5,172.1,54.3,182.6,144.7s-54.3,172.1-144.6,182.6c-90.4,10.5-172.1-54.3-182.6-144.6
				C1005.6,347.8,1070.4,266,1160.7,255.5L1160.7,255.5z M1162.4,287.2L1162.4,287.2c-19.8,2.3-34,20.3-31.7,40.1
				c2.3,19.8,20.3,34,40.1,31.8c19.8-2.3,34.1-20.3,31.8-40.1C1200.2,299.1,1182.2,284.9,1162.4,287.2L1162.4,287.2z M1181.4,434.1
				L1181.4,434.1c-6.6,0.8-11.4,6.8-10.6,13.4s6.7,11.4,13.4,10.6c6.6-0.8,11.3-6.7,10.6-13.4C1194,438.1,1188,433.4,1181.4,434.1
				L1181.4,434.1z M1187.2,418.8L1187.2,418.8c-0.4-3.9-3.9-6.6-7.8-6.2s-6.6,4-6.2,7.8c0.4,3.9,3.9,6.6,7.8,6.2
				C1184.9,426.1,1187.7,422.6,1187.2,418.8L1187.2,418.8z M1178,404.2L1178,404.2c6.6-0.8,11.3-6.7,10.6-13.4
				c-0.8-6.6-6.8-11.3-13.4-10.6c-6.6,0.8-11.4,6.8-10.6,13.3C1165.4,400.2,1171.3,405,1178,404.2L1178,404.2z M1251.8,490.3
				L1251.8,490.3c18.3,7.9,39.6-0.5,47.5-18.9c7.9-18.3-0.5-39.6-18.9-47.5c-18.3-7.9-39.6,0.5-47.5,18.8
				C1225.1,461.1,1233.5,482.4,1251.8,490.3L1251.8,490.3z M1226,382.9L1226,382.9c11.9,16,34.6,19.3,50.6,7.4s19.4-34.6,7.5-50.6
				s-34.6-19.3-50.6-7.4C1217.5,344.2,1214.1,366.9,1226,382.9L1226,382.9z M1218.6,414.6L1218.6,414.6c-0.8-6.6-6.8-11.4-13.4-10.6
				s-11.4,6.8-10.6,13.4s6.7,11.4,13.4,10.6C1214.6,427.2,1219.4,421.2,1218.6,414.6L1218.6,414.6z M1192.9,550.6L1192.9,550.6
				c19.8-2.3,34.1-20.3,31.8-40.1c-2.3-19.8-20.3-34-40.1-31.8c-19.8,2.3-34,20.3-31.7,40.1C1155.1,538.7,1173.1,552.9,1192.9,550.6
				L1192.9,550.6z M1154.2,434.2L1154.2,434.2c6.6-0.8,11.4-6.8,10.6-13.4s-6.8-11.4-13.4-10.6s-11.3,6.8-10.6,13.4
				C1141.6,430.3,1147.5,435,1154.2,434.2L1154.2,434.2z M1103.5,347.4L1103.5,347.4c-18.3-7.9-39.6,0.5-47.5,18.8
				s0.5,39.6,18.8,47.6c18.3,7.9,39.6-0.5,47.6-18.8C1130.3,376.7,1121.8,355.3,1103.5,347.4L1103.5,347.4z M1121.8,505.4
				L1121.8,505.4c16-11.9,19.3-34.6,7.5-50.6c-11.9-16-34.6-19.3-50.6-7.4s-19.3,34.6-7.4,50.6
				C1083.1,514,1105.8,517.3,1121.8,505.4z"/>
			<path class="st4" d="M1161.8,264.5c85.4-9.9,162.7,51.3,172.6,136.7s-51.3,162.7-136.7,172.6c-85.4,9.9-162.7-51.3-172.6-136.7
				C1015.1,351.7,1076.3,274.4,1161.8,264.5L1161.8,264.5z M1162.4,287.2L1162.4,287.2c-19.8,2.3-34,20.3-31.7,40.1
				c2.3,19.8,20.3,34,40.1,31.8c19.8-2.3,34.1-20.3,31.8-40.1C1200.2,299.1,1182.2,284.9,1162.4,287.2L1162.4,287.2z M1181.4,434.1
				L1181.4,434.1c-6.6,0.8-11.4,6.8-10.6,13.4s6.7,11.4,13.4,10.6c6.6-0.8,11.3-6.7,10.6-13.4C1194,438.1,1188,433.4,1181.4,434.1
				L1181.4,434.1z M1187.2,418.8L1187.2,418.8c-0.4-3.9-3.9-6.6-7.8-6.2s-6.6,4-6.2,7.8c0.4,3.9,3.9,6.6,7.8,6.2
				C1184.9,426.1,1187.7,422.6,1187.2,418.8L1187.2,418.8z M1178,404.2L1178,404.2c6.6-0.8,11.3-6.7,10.6-13.4
				c-0.8-6.6-6.8-11.3-13.4-10.6c-6.6,0.8-11.4,6.8-10.6,13.3C1165.4,400.2,1171.3,405,1178,404.2L1178,404.2z M1251.8,490.3
				L1251.8,490.3c18.3,7.9,39.6-0.5,47.5-18.9c7.9-18.3-0.5-39.6-18.9-47.5c-18.3-7.9-39.6,0.5-47.5,18.8
				C1225.1,461.1,1233.5,482.4,1251.8,490.3L1251.8,490.3z M1226,382.9L1226,382.9c11.9,16,34.6,19.3,50.6,7.4s19.4-34.6,7.5-50.6
				s-34.6-19.3-50.6-7.4C1217.5,344.2,1214.1,366.9,1226,382.9L1226,382.9z M1218.6,414.6L1218.6,414.6c-0.8-6.6-6.8-11.4-13.4-10.6
				s-11.4,6.8-10.6,13.4s6.7,11.4,13.4,10.6C1214.6,427.2,1219.4,421.2,1218.6,414.6L1218.6,414.6z M1192.9,550.6L1192.9,550.6
				c19.8-2.3,34.1-20.3,31.8-40.1c-2.3-19.8-20.3-34-40.1-31.8c-19.8,2.3-34,20.3-31.7,40.1C1155.1,538.7,1173.1,552.9,1192.9,550.6
				L1192.9,550.6z M1154.2,434.2L1154.2,434.2c6.6-0.8,11.4-6.8,10.6-13.4s-6.8-11.4-13.4-10.6s-11.3,6.8-10.6,13.4
				C1141.6,430.3,1147.5,435,1154.2,434.2L1154.2,434.2z M1103.5,347.4L1103.5,347.4c-18.3-7.9-39.6,0.5-47.5,18.8
				s0.5,39.6,18.8,47.6c18.3,7.9,39.6-0.5,47.6-18.8C1130.3,376.7,1121.8,355.3,1103.5,347.4L1103.5,347.4z M1121.8,505.4
				L1121.8,505.4c16-11.9,19.3-34.6,7.5-50.6c-11.9-16-34.6-19.3-50.6-7.4s-19.3,34.6-7.4,50.6
				C1083.1,514,1105.8,517.3,1121.8,505.4z"/>
			
				<linearGradient id="SVGID_1_" gradientUnits="userSpaceOnUse" x1="1178.9467" y1="1417.0491" x2="1154.1771" y2="1593.293" gradientTransform="matrix(1 0 0 -1 0 1828)">
				<stop  offset="0" style="stop-color:#F6F8F9"/>
				<stop  offset="0.17" style="stop-color:#F6F8F9"/>
				<stop  offset="0.6" style="stop-color:#BEC0C1"/>
				<stop  offset="1" style="stop-color:#838688"/>
			</linearGradient>
			<path class="st5" d="M1161.7,281.2c23.1-2.7,44.1,13.9,46.8,37c2.7,23.1-13.9,44.1-37,46.8c-23.2,2.7-44.1-13.9-46.8-37
				C1122,304.8,1138.5,283.9,1161.7,281.2L1161.7,281.2z M1170.7,359L1170.7,359c19.8-2.3,34.1-20.3,31.8-40.1
				c-2.3-19.8-20.3-34.1-40.1-31.8c-19.8,2.3-34,20.3-31.7,40.1C1132.9,347.1,1150.9,361.3,1170.7,359z"/>
			
				<linearGradient id="SVGID_2_" gradientUnits="userSpaceOnUse" x1="1199.0518" y1="1229.8063" x2="1178.125" y2="1400.2416" gradientTransform="matrix(1 0 0 -1 0 1828)">
				<stop  offset="0" style="stop-color:#F6F8F9"/>
				<stop  offset="0.17" style="stop-color:#F6F8F9"/>
				<stop  offset="0.6" style="stop-color:#BEC0C1"/>
				<stop  offset="1" style="stop-color:#838688"/>
			</linearGradient>
			<path class="st6" d="M1183.9,472.8c23.1-2.7,44.1,13.9,46.8,37c2.7,23.1-13.9,44.1-37,46.8c-23.2,2.7-44.1-13.9-46.8-37
				C1144.2,496.4,1160.8,475.5,1183.9,472.8L1183.9,472.8z M1192.9,550.6L1192.9,550.6c19.8-2.3,34.1-20.3,31.8-40.1
				c-2.3-19.8-20.3-34-40.1-31.8c-19.8,2.3-34,20.3-31.7,40.1C1155.1,538.7,1173.1,552.9,1192.9,550.6z"/>
			
				<linearGradient id="SVGID_3_" gradientUnits="userSpaceOnUse" x1="1144.5122" y1="1432.8552" x2="1345.7684" y2="1494.3854" gradientTransform="matrix(1 0 0 -1 0 1828)">
				<stop  offset="0" style="stop-color:#F6F8F9"/>
				<stop  offset="0.17" style="stop-color:#F6F8F9"/>
				<stop  offset="0.6" style="stop-color:#BEC0C1"/>
				<stop  offset="1" style="stop-color:#838688"/>
			</linearGradient>
			<path class="st7" d="M1229.9,327.5c18.7-13.9,45.1-10,59,8.7s10,45.1-8.7,59s-45.1,10-59-8.7S1211.2,341.4,1229.9,327.5
				L1229.9,327.5z M1226,382.9L1226,382.9c11.9,16,34.6,19.3,50.6,7.4s19.4-34.6,7.5-50.6s-34.6-19.3-50.6-7.4
				C1217.5,344.2,1214.1,366.9,1226,382.9z"/>
			
				<linearGradient id="SVGID_4_" gradientUnits="userSpaceOnUse" x1="1107.578" y1="1267.8684" x2="1092.8723" y2="1435.9545" gradientTransform="matrix(1 0 0 -1 0 1828)">
				<stop  offset="0" style="stop-color:#F6F8F9"/>
				<stop  offset="0.17" style="stop-color:#F6F8F9"/>
				<stop  offset="0.6" style="stop-color:#BEC0C1"/>
				<stop  offset="1" style="stop-color:#838688"/>
			</linearGradient>
			<path class="st8" d="M1075.1,442.5c18.7-13.9,45.1-10,59,8.7s10,45.1-8.7,59c-18.7,13.9-45.1,10-59-8.7
				C1052.5,482.9,1056.4,456.4,1075.1,442.5L1075.1,442.5z M1071.2,497.9L1071.2,497.9c11.9,16,34.6,19.4,50.6,7.5
				s19.3-34.6,7.5-50.6c-11.9-16-34.6-19.3-50.6-7.4S1059.3,482,1071.2,497.9z"/>
			
				<linearGradient id="SVGID_5_" gradientUnits="userSpaceOnUse" x1="1210.6075" y1="1311.2667" x2="1337.0262" y2="1446.8342" gradientTransform="matrix(1 0 0 -1 0 1828)">
				<stop  offset="0" style="stop-color:#F6F8F9"/>
				<stop  offset="0.17" style="stop-color:#F6F8F9"/>
				<stop  offset="0.6" style="stop-color:#BEC0C1"/>
				<stop  offset="1" style="stop-color:#838688"/>
			</linearGradient>
			<path class="st9" d="M1227.4,440.4c9.3-21.4,34.1-31.2,55.5-22s31.2,34.1,22,55.5s-34.1,31.2-55.5,22
				C1228,486.6,1218.2,461.8,1227.4,440.4L1227.4,440.4z M1251.8,490.3L1251.8,490.3c18.3,7.9,39.6-0.5,47.5-18.9
				c7.9-18.3-0.5-39.6-18.9-47.5c-18.3-7.9-39.6,0.5-47.5,18.8C1225.1,461.1,1233.5,482.4,1251.8,490.3z"/>
			
				<linearGradient id="SVGID_6_" gradientUnits="userSpaceOnUse" x1="1125.8717" y1="1406.588" x2="1032.082" y2="1510.7518" gradientTransform="matrix(1 0 0 -1 0 1828)">
				<stop  offset="0" style="stop-color:#F6F8F9"/>
				<stop  offset="0.17" style="stop-color:#F6F8F9"/>
				<stop  offset="0.6" style="stop-color:#BEC0C1"/>
				<stop  offset="1" style="stop-color:#838688"/>
			</linearGradient>
			<path class="st10" d="M1050.4,363.9c9.2-21.4,34.1-31.2,55.5-22s31.2,34.1,22,55.5c-9.3,21.4-34.1,31.2-55.5,22
				C1051,410.1,1041.2,385.3,1050.4,363.9L1050.4,363.9z M1074.8,413.8L1074.8,413.8c18.3,7.9,39.6-0.5,47.6-18.8
				c7.9-18.3-0.6-39.7-18.9-47.6s-39.6,0.5-47.5,18.8C1048,384.6,1056.5,405.9,1074.8,413.8z"/>
			<path class="st11" d="M1174.5,374.2c24.8-2.9,47.2,14.9,50.1,39.7c2.9,24.8-14.9,47.2-39.7,50.1c-24.8,2.9-47.2-14.9-50.1-39.7
				C1131.9,399.6,1149.7,377.1,1174.5,374.2L1174.5,374.2z M1184.6,461L1184.6,461c23.1-2.7,39.7-23.6,37-46.8
				c-2.7-23.1-23.6-39.7-46.8-37.1c-23.2,2.7-39.7,23.6-37,46.8C1140.5,447.2,1161.4,463.7,1184.6,461z"/>
		</g>
		<g>
			<path class="st0" d="M757.2,539.2c44.3,47.5,118.6,50,166.1,5.8c47.4-44.3,50-118.6,5.7-166.1s-118.6-50-166.1-5.7
				C715.5,417.4,713,491.7,757.2,539.2z"/>
			<path class="st3" d="M730.1,337.8c66.5-62.1,170.8-58.5,232.8,8.1c62.1,66.5,58.5,170.8-8.1,232.8c-66.5,62.1-170.8,58.5-232.8-8
				S663.6,399.9,730.1,337.8L730.1,337.8z M750.2,362.3L750.2,362.3c-14.6,13.6-15.4,36.5-1.8,51.1c13.6,14.6,36.5,15.4,51.1,1.8
				s15.4-36.5,1.8-51.1C787.7,349.5,764.8,348.7,750.2,362.3L750.2,362.3z M852.8,469.3L852.8,469.3c-4.9,4.6-5.1,12.2-0.6,17
				c4.6,4.9,12.2,5.1,17.1,0.6c4.9-4.5,5.1-12.2,0.6-17C865.3,465,857.6,464.8,852.8,469.3L852.8,469.3z M848.3,453.5L848.3,453.5
				c-2.7-2.8-7.1-3-9.9-0.4c-2.8,2.7-3,7.1-0.3,10c2.7,2.8,7.1,3,9.9,0.3C850.8,460.8,851,456.3,848.3,453.5L848.3,453.5z
				 M832.2,447.3L832.2,447.3c4.9-4.5,5.1-12.2,0.6-17c-4.5-4.9-12.2-5.1-17-0.6c-4.9,4.5-5.1,12.2-0.6,17
				C819.7,451.5,827.3,451.8,832.2,447.3L832.2,447.3z M942.8,472.8L942.8,472.8c19.4-4.5,31.6-23.9,27.1-43.4
				c-4.5-19.4-24-31.6-43.4-27.1s-31.6,24-27.1,43.4C903.9,465.1,923.4,477.3,942.8,472.8L942.8,472.8z M858.3,401.6L858.3,401.6
				c19.1,5.8,39.3-5,45.1-24c5.8-19.1-4.9-39.3-24-45.1c-19.1-5.8-39.3,5-45.1,24C828.4,375.6,839.2,395.8,858.3,401.6L858.3,401.6z
				 M871.1,431.5L871.1,431.5c-4.5-4.9-12.2-5.1-17-0.6c-4.9,4.5-5.1,12.2-0.6,17c4.5,4.9,12.2,5.1,17,0.6
				C875.4,444,875.7,436.4,871.1,431.5L871.1,431.5z M931.1,556.2L931.1,556.2c14.6-13.6,15.4-36.5,1.8-51.1
				c-13.6-14.6-36.5-15.4-51.1-1.8s-15.4,36.5-1.8,51.1C893.6,569,916.6,569.8,931.1,556.2L931.1,556.2z M830.9,485.6L830.9,485.6
				c4.9-4.5,5.1-12.2,0.6-17c-4.5-4.9-12.2-5.1-17-0.6c-4.9,4.5-5.1,12.2-0.6,17C818.4,489.9,826,490.1,830.9,485.6L830.9,485.6z
				 M738.6,445.8L738.6,445.8c-19.4,4.5-31.6,24-27.1,43.4s23.9,31.6,43.4,27.1c19.4-4.5,31.6-23.9,27.1-43.4S758,441.3,738.6,445.8
				L738.6,445.8z M847.1,562.1L847.1,562.1c5.8-19.1-4.9-39.3-24-45.1s-39.3,5-45.2,24c-5.8,19.1,5,39.3,24,45.1
				C821,591.9,841.3,581.1,847.1,562.1z"/>
			<path class="st4" d="M736.3,344.4c62.9-58.7,161.4-55.2,220.1,7.6c58.7,62.9,55.3,161.4-7.6,220c-62.9,58.7-161.4,55.3-220.1-7.6
				C670,501.6,673.4,403.1,736.3,344.4L736.3,344.4z M750.2,362.3L750.2,362.3c-14.6,13.6-15.4,36.5-1.8,51.1
				c13.6,14.6,36.5,15.4,51.1,1.8s15.4-36.5,1.8-51.1C787.7,349.5,764.8,348.7,750.2,362.3L750.2,362.3z M852.8,469.3L852.8,469.3
				c-4.9,4.6-5.1,12.2-0.6,17c4.6,4.9,12.2,5.1,17.1,0.6c4.9-4.5,5.1-12.2,0.6-17C865.3,465,857.6,464.8,852.8,469.3L852.8,469.3z
				 M848.3,453.5L848.3,453.5c-2.7-2.8-7.1-3-9.9-0.4c-2.8,2.7-3,7.1-0.3,10c2.7,2.8,7.1,3,9.9,0.3
				C850.8,460.8,851,456.3,848.3,453.5L848.3,453.5z M832.2,447.3L832.2,447.3c4.9-4.5,5.1-12.2,0.6-17c-4.5-4.9-12.2-5.1-17-0.6
				c-4.9,4.5-5.1,12.2-0.6,17C819.7,451.5,827.3,451.8,832.2,447.3L832.2,447.3z M942.8,472.8L942.8,472.8
				c19.4-4.5,31.6-23.9,27.1-43.4c-4.5-19.4-24-31.6-43.4-27.1s-31.6,24-27.1,43.4C903.9,465.1,923.4,477.3,942.8,472.8L942.8,472.8
				z M858.3,401.6L858.3,401.6c19.1,5.8,39.3-5,45.1-24c5.8-19.1-4.9-39.3-24-45.1c-19.1-5.8-39.3,5-45.1,24
				C828.4,375.6,839.2,395.8,858.3,401.6L858.3,401.6z M871.1,431.5L871.1,431.5c-4.5-4.9-12.2-5.1-17-0.6c-4.9,4.5-5.1,12.2-0.6,17
				c4.5,4.9,12.2,5.1,17,0.6C875.4,444,875.7,436.4,871.1,431.5L871.1,431.5z M931.1,556.2L931.1,556.2
				c14.6-13.6,15.4-36.5,1.8-51.1c-13.6-14.6-36.5-15.4-51.1-1.8s-15.4,36.5-1.8,51.1C893.6,569,916.6,569.8,931.1,556.2
				L931.1,556.2z M830.9,485.6L830.9,485.6c4.9-4.5,5.1-12.2,0.6-17c-4.5-4.9-12.2-5.1-17-0.6c-4.9,4.5-5.1,12.2-0.6,17
				C818.4,489.9,826,490.1,830.9,485.6L830.9,485.6z M738.6,445.8L738.6,445.8c-19.4,4.5-31.6,24-27.1,43.4s23.9,31.6,43.4,27.1
				c19.4-4.5,31.6-23.9,27.1-43.4S758,441.3,738.6,445.8L738.6,445.8z M847.1,562.1L847.1,562.1c5.8-19.1-4.9-39.3-24-45.1
				s-39.3,5-45.2,24c-5.8,19.1,5,39.3,24,45.1C821,591.9,841.3,581.1,847.1,562.1z"/>
			
				<linearGradient id="SVGID_7_" gradientUnits="userSpaceOnUse" x1="825.3251" y1="1388.7748" x2="723.0721" y2="1491.0278" gradientTransform="matrix(1 0 0 -1 0 1828)">
				<stop  offset="0" style="stop-color:#F6F8F9"/>
				<stop  offset="0.17" style="stop-color:#F6F8F9"/>
				<stop  offset="0.6" style="stop-color:#BEC0C1"/>
				<stop  offset="1" style="stop-color:#838688"/>
			</linearGradient>
			<path class="st12" d="M746.1,357.9c17-15.9,43.7-15,59.6,2.1c15.9,17,15,43.7-2.1,59.6c-17,15.9-43.7,15-59.6-2.1
				C728.2,400.5,729.1,373.8,746.1,357.9L746.1,357.9z M799.6,415.2L799.6,415.2c14.6-13.6,15.4-36.5,1.8-51.1
				c-13.6-14.6-36.6-15.4-51.1-1.8c-14.6,13.6-15.4,36.5-1.8,51.1C762.1,428,785,428.8,799.6,415.2z"/>
			
				<linearGradient id="SVGID_8_" gradientUnits="userSpaceOnUse" x1="950.5547" y1="1252.5781" x2="852.7762" y2="1353.8309" gradientTransform="matrix(1 0 0 -1 0 1828)">
				<stop  offset="0" style="stop-color:#F6F8F9"/>
				<stop  offset="0.17" style="stop-color:#F6F8F9"/>
				<stop  offset="0.6" style="stop-color:#BEC0C1"/>
				<stop  offset="1" style="stop-color:#838688"/>
			</linearGradient>
			<path class="st13" d="M877.7,498.9c17-15.9,43.7-15,59.6,2.1c15.9,17,15,43.7-2.1,59.6c-17,15.9-43.7,15-59.6-2.1
				C859.7,541.5,860.6,514.8,877.7,498.9L877.7,498.9z M931.1,556.2L931.1,556.2c14.6-13.6,15.4-36.5,1.8-51.1
				c-13.6-14.6-36.5-15.4-51.1-1.8s-15.4,36.5-1.8,51.1C893.6,569,916.6,569.8,931.1,556.2z"/>
			
				<linearGradient id="SVGID_9_" gradientUnits="userSpaceOnUse" x1="808.8444" y1="1381.3198" x2="922.0804" y2="1531.5891" gradientTransform="matrix(1 0 0 -1 0 1828)">
				<stop  offset="0" style="stop-color:#F6F8F9"/>
				<stop  offset="0.17" style="stop-color:#F6F8F9"/>
				<stop  offset="0.6" style="stop-color:#BEC0C1"/>
				<stop  offset="1" style="stop-color:#838688"/>
			</linearGradient>
			<path class="st14" d="M828.5,354.7c6.8-22.3,30.4-34.8,52.7-28s34.8,30.4,28,52.7c-6.8,22.3-30.4,34.8-52.7,28
				C834.2,400.6,821.7,377,828.5,354.7L828.5,354.7z M858.3,401.6L858.3,401.6c19.1,5.8,39.3-5,45.1-24c5.8-19.1-4.9-39.3-24-45.1
				c-19.1-5.8-39.3,5-45.1,24C828.4,375.6,839.2,395.8,858.3,401.6z"/>
			
				<linearGradient id="SVGID_10_" gradientUnits="userSpaceOnUse" x1="857.6503" y1="1226.3832" x2="764.9633" y2="1329.3226" gradientTransform="matrix(1 0 0 -1 0 1828)">
				<stop  offset="0" style="stop-color:#F6F8F9"/>
				<stop  offset="0.17" style="stop-color:#F6F8F9"/>
				<stop  offset="0.6" style="stop-color:#BEC0C1"/>
				<stop  offset="1" style="stop-color:#838688"/>
			</linearGradient>
			<path class="st15" d="M772.2,539.2c6.8-22.3,30.4-34.8,52.7-28s34.8,30.4,28,52.7s-30.4,34.8-52.7,28
				C777.9,585,765.4,561.5,772.2,539.2L772.2,539.2z M801.9,586.1L801.9,586.1c19.1,5.8,39.3-4.9,45.1-24s-4.9-39.3-24-45.1
				s-39.3,5-45.2,24C772.1,560,782.9,580.3,801.9,586.1z"/>
			
				<linearGradient id="SVGID_11_" gradientUnits="userSpaceOnUse" x1="922.3306" y1="1290.3112" x2="947.4491" y2="1494.8849" gradientTransform="matrix(1 0 0 -1 0 1828)">
				<stop  offset="0" style="stop-color:#F6F8F9"/>
				<stop  offset="0.17" style="stop-color:#F6F8F9"/>
				<stop  offset="0.6" style="stop-color:#BEC0C1"/>
				<stop  offset="1" style="stop-color:#838688"/>
			</linearGradient>
			<path class="st16" d="M893.5,447.1c-5.2-22.7,8.9-45.4,31.6-50.6c22.7-5.3,45.4,8.9,50.6,31.6c5.3,22.7-8.9,45.4-31.6,50.6
				C921.4,483.9,898.8,469.8,893.5,447.1L893.5,447.1z M942.8,472.8L942.8,472.8c19.4-4.5,31.6-23.9,27.1-43.4
				c-4.5-19.4-24-31.6-43.4-27.1s-31.6,24-27.1,43.4C903.9,465.1,923.4,477.3,942.8,472.8z"/>
			
				<linearGradient id="SVGID_12_" gradientUnits="userSpaceOnUse" x1="792.6371" y1="1338.0723" x2="647.5236" y2="1366.2794" gradientTransform="matrix(1 0 0 -1 0 1828)">
				<stop  offset="0" style="stop-color:#F6F8F9"/>
				<stop  offset="0.17" style="stop-color:#F6F8F9"/>
				<stop  offset="0.6" style="stop-color:#BEC0C1"/>
				<stop  offset="1" style="stop-color:#838688"/>
			</linearGradient>
			<path class="st17" d="M705.6,490.5c-5.2-22.7,8.9-45.4,31.6-50.6c22.7-5.3,45.4,8.9,50.6,31.6c5.2,22.7-8.9,45.4-31.6,50.6
				C733.5,527.4,710.9,513.2,705.6,490.5L705.6,490.5z M754.9,516.2L754.9,516.2c19.4-4.5,31.6-23.9,27.1-43.4
				c-4.5-19.4-24-31.6-43.4-27.1s-31.6,24-27.1,43.4C716,508.6,735.4,520.7,754.9,516.2z"/>
			<path class="st11" d="M811.7,425.2c18.2-17,46.9-16,63.9,2.2s16,46.9-2.2,63.9c-18.3,17-46.9,16.1-63.9-2.2
				C792.4,470.9,793.4,442.3,811.7,425.2L811.7,425.2z M871.3,489.1L871.3,489.1c17-15.9,18-42.6,2.1-59.6s-42.6-18-59.6-2.1
				s-17.9,42.6-2.1,59.6C827.5,504.1,854.2,505,871.3,489.1z"/>
		</g>
		
			<linearGradient id="SVGID_13_" gradientUnits="userSpaceOnUse" x1="1117.6625" y1="1081.9799" x2="1075.5833" y2="1076.8131" gradientTransform="matrix(1 0 0 -1 0 1828)">
			<stop  offset="0" style="stop-color:#95959A"/>
			<stop  offset="1" style="stop-color:#BABBC0"/>
		</linearGradient>
		<path class="st18" d="M1091,761.2c0.3,3,3,5.1,6,4.7l3.2-0.4c3-0.3,5.1-3,4.8-6l-2.7-23.4c-0.3-3-3-5.1-6-4.8l-3.2,0.4
			c-3,0.3-5.1,3-4.8,6L1091,761.2z"/>
		
			<linearGradient id="SVGID_14_" gradientUnits="userSpaceOnUse" x1="1087.9092" y1="1078.5734" x2="1045.8645" y2="1073.4109" gradientTransform="matrix(1 0 0 -1 0 1828)">
			<stop  offset="0" style="stop-color:#95959A"/>
			<stop  offset="1" style="stop-color:#BABBC0"/>
		</linearGradient>
		<path class="st19" d="M1061.3,764.6c0.3,3,3,5.1,6,4.7l3.2-0.4c3-0.3,5.1-3,4.8-6l-2.7-23.4c-0.3-3-3-5.1-6-4.8l-3.2,0.4
			c-3,0.3-5.1,3-4.7,6L1061.3,764.6z"/>
		
			<rect x="958.7" y="636.1" transform="matrix(0.9933 -0.1152 0.1152 0.9933 -78.9618 129.5021)" class="st3" width="244.3" height="223.5"/>
		<path class="st0" d="M1215.2,844.8L972.5,873l-25.8-222l242.7-28.2L1215.2,844.8L1215.2,844.8z M1183.4,630.4L1183.4,630.4
			l-229,26.6l24.2,208.3l229-26.6L1183.4,630.4z"/>
		<g>
			<g>
				<path class="st0" d="M1150.6,772.9c18-2.1,31-18.5,28.9-36.5s-18.5-31-36.5-28.9s-31,18.4-28.9,36.5
					C1116.2,762,1132.5,775,1150.6,772.9z"/>
				<path class="st0" d="M1150.1,768.7c15.7-1.8,27-16.1,25.2-31.8s-16.1-27-31.8-25.2c-15.7,1.8-27,16.1-25.2,31.8
					S1134.4,770.5,1150.1,768.7z"/>
			</g>
			<g>
				<path class="st0" d="M1011.8,789c18-2.1,31-18.4,28.9-36.5c-2.1-18-18.4-31-36.5-28.9c-18,2.1-31,18.5-28.9,36.5
					C977.4,778.1,993.8,791.1,1011.8,789z"/>
				<path class="st0" d="M1011.3,784.8c15.7-1.8,27-16.1,25.2-31.8s-16.1-27-31.8-25.2s-27,16.1-25.2,31.8S995.6,786.6,1011.3,784.8
					z"/>
			</g>
		</g>
		<polygon class="st0" points="1362.6,626.9 1363.7,636.3 1390.8,609.1 1413.1,794.6 1379.4,771.3 1383.1,803.6 1337.9,808.9 
			1317.4,632.2 		"/>
		<path class="st2" d="M1397.5,579.4l83.6-9.7l28.2,243l-83.6,9.7c-15.4,1.8-21.4,1.6-21.9-2.4l-27.1-233.6
			C1376.2,582.3,1382,581.2,1397.5,579.4z"/>
		<path class="st0" d="M682.1,750.1c8.4-1,14.5-8.6,13.5-17l-5.9-50.8c-1-8.4-8.6-14.5-17.1-13.5c-8.4,1-14.5,8.6-13.5,17l5.9,50.8
			C666.1,745.1,673.7,751.1,682.1,750.1z"/>
	</g>
	<g>
		<path class="st20" d="M1970.4,787.4l-757.5,689.3l-195-214.3L1775.4,573L1970.4,787.4L1970.4,787.4z M1049.9,1250.9L1049.9,1250.9
			c-1.5-1.6-4.1-1.5-6,0.1l-6.7,6.1c-1.8,1.7-2.1,4.3-0.7,5.9l9.6,10.5c1.5,1.6,4.1,1.5,5.9-0.1l6.7-6.1c1.8-1.7,2.1-4.3,0.7-5.9
			L1049.9,1250.9L1049.9,1250.9z M1081.4,1222.2L1081.4,1222.2c-1.5-1.6-4.1-1.5-6,0.1l-6.7,6.1c-1.8,1.7-2.1,4.3-0.7,5.9l9.6,10.5
			c1.5,1.6,4.1,1.5,6-0.1l6.7-6.1c1.8-1.7,2.1-4.3,0.7-5.9L1081.4,1222.2L1081.4,1222.2z M1113,1193.5L1113,1193.5
			c-1.5-1.6-4.1-1.5-6,0.1l-6.7,6.1c-1.8,1.7-2.1,4.3-0.7,5.9l9.6,10.5c1.5,1.6,4.1,1.5,6-0.1l6.7-6.1c1.8-1.7,2.1-4.3,0.7-5.9
			L1113,1193.5L1113,1193.5z M1144.6,1164.8L1144.6,1164.8c-1.5-1.6-4.1-1.5-6,0.1l-6.7,6.1c-1.8,1.7-2.1,4.3-0.7,5.9l9.6,10.5
			c1.5,1.6,4.1,1.5,6-0.1l6.7-6.1c1.8-1.7,2.1-4.3,0.7-5.9L1144.6,1164.8L1144.6,1164.8z M1176.2,1136L1176.2,1136
			c-1.5-1.6-4.1-1.5-6,0.1l-6.7,6.1c-1.8,1.7-2.1,4.3-0.7,5.9l9.6,10.5c1.5,1.6,4.1,1.5,6-0.1l6.7-6.1c1.8-1.7,2.1-4.3,0.7-5.9
			L1176.2,1136L1176.2,1136z M1207.7,1107.3L1207.7,1107.3c-1.5-1.6-4.1-1.5-6,0.1l-6.7,6.1c-1.8,1.7-2.1,4.3-0.7,5.9l9.6,10.5
			c1.5,1.6,4.1,1.5,6-0.1l6.7-6.1c1.8-1.7,2.1-4.3,0.7-5.9L1207.7,1107.3L1207.7,1107.3z M1239.3,1078.6L1239.3,1078.6
			c-1.5-1.6-4.1-1.5-6,0.1l-6.7,6.1c-1.8,1.7-2.1,4.3-0.7,5.9l9.6,10.5c1.5,1.6,4.1,1.5,6-0.1l6.7-6.1c1.8-1.7,2.1-4.3,0.7-5.9
			L1239.3,1078.6L1239.3,1078.6z M1270.9,1049.8L1270.9,1049.8c-1.5-1.6-4.1-1.5-6,0.1l-6.7,6.1c-1.8,1.7-2.1,4.3-0.7,5.9l9.6,10.5
			c1.5,1.6,4.1,1.5,6-0.1l6.6-6.1c1.8-1.7,2.1-4.3,0.7-5.9L1270.9,1049.8L1270.9,1049.8z M1302.6,1021L1302.6,1021
			c-1.5-1.6-4.1-1.5-5.9,0.1l-6.7,6.1c-1.8,1.7-2.1,4.3-0.7,5.9l9.6,10.5c1.5,1.6,4.1,1.5,6-0.1l6.7-6.1c1.8-1.7,2.1-4.3,0.7-5.9
			L1302.6,1021L1302.6,1021z M1334.2,992.2L1334.2,992.2c-1.5-1.6-4.1-1.5-6,0.1l-6.7,6.1c-1.8,1.7-2.1,4.3-0.7,5.9l9.6,10.5
			c1.5,1.6,4.1,1.5,6-0.1l6.7-6.1c1.8-1.7,2.1-4.3,0.7-5.9L1334.2,992.2L1334.2,992.2z M1365.7,963.5L1365.7,963.5
			c-1.5-1.6-4.1-1.5-6,0.1l-6.7,6.1c-1.8,1.7-2.1,4.3-0.7,5.9l9.6,10.5c1.5,1.6,4.1,1.5,6-0.1l6.7-6.1c1.8-1.7,2.1-4.3,0.7-5.9
			L1365.7,963.5L1365.7,963.5z M1397.3,934.8L1397.3,934.8c-1.5-1.6-4.1-1.5-6,0.1l-6.7,6.1c-1.8,1.7-2.1,4.3-0.7,5.9l9.6,10.5
			c1.5,1.6,4.1,1.5,5.9-0.1l6.7-6.1c1.8-1.7,2.1-4.3,0.7-5.9L1397.3,934.8L1397.3,934.8z M1428.9,906L1428.9,906
			c-1.5-1.6-4.1-1.5-6,0.1l-6.7,6.1c-1.8,1.7-2.1,4.3-0.7,5.9l9.6,10.5c1.5,1.6,4.1,1.5,5.9-0.1l6.7-6.1c1.8-1.7,2.1-4.3,0.7-5.9
			L1428.9,906L1428.9,906z M1460.5,877.3L1460.5,877.3c-1.5-1.6-4.1-1.5-6,0.1l-6.6,6c-1.8,1.7-2.1,4.3-0.7,5.9l9.6,10.5
			c1.5,1.6,4.1,1.5,6-0.1l6.6-6c1.8-1.7,2.1-4.3,0.7-5.9L1460.5,877.3L1460.5,877.3z M1492,848.6L1492,848.6c-1.5-1.6-4.1-1.5-6,0.1
			l-6.6,6.1c-1.8,1.7-2.1,4.3-0.7,5.9l9.6,10.5c1.5,1.6,4.1,1.5,6-0.1l6.7-6.1c1.8-1.7,2.1-4.3,0.7-5.9L1492,848.6L1492,848.6z
			 M1523.6,819.9L1523.6,819.9c-1.5-1.6-4.1-1.5-6,0.1l-6.7,6.1c-1.8,1.7-2.1,4.3-0.7,5.9l9.6,10.5c1.5,1.6,4.1,1.5,6-0.1l6.7-6.1
			c1.8-1.7,2.1-4.3,0.7-5.9L1523.6,819.9L1523.6,819.9z M1555.3,791L1555.3,791c-1.5-1.6-4.1-1.5-6,0.1l-6.6,6.1
			c-1.8,1.7-2.1,4.3-0.7,5.9l9.6,10.5c1.5,1.6,4.1,1.5,6-0.1l6.6-6.1c1.8-1.7,2.1-4.3,0.7-5.9L1555.3,791L1555.3,791z M1586.9,762.3
			L1586.9,762.3c-1.5-1.6-4.1-1.5-6,0.1l-6.7,6.1c-1.8,1.7-2.1,4.3-0.7,5.9l9.6,10.5c1.5,1.6,4.1,1.5,6-0.1l6.7-6.1
			c1.8-1.7,2.1-4.3,0.7-5.9L1586.9,762.3L1586.9,762.3z M1618.5,733.5L1618.5,733.5c-1.5-1.6-4.1-1.5-5.9,0.1l-6.7,6.1
			c-1.8,1.7-2.1,4.3-0.7,5.9l9.6,10.5c1.5,1.6,4.1,1.5,6-0.1l6.7-6.1c1.8-1.7,2.1-4.3,0.7-5.9L1618.5,733.5L1618.5,733.5z
			 M1650,704.8L1650,704.8c-1.5-1.6-4.1-1.5-6,0.1l-6.6,6.1c-1.8,1.7-2.1,4.3-0.7,5.9l9.6,10.5c1.5,1.6,4.1,1.5,6-0.1l6.6-6.1
			c1.8-1.7,2.1-4.3,0.7-5.9L1650,704.8L1650,704.8z M1681.6,676.1L1681.6,676.1c-1.5-1.6-4.1-1.5-6,0.1l-6.7,6.1
			c-1.8,1.7-2.1,4.3-0.7,5.9l9.6,10.5c1.5,1.6,4.1,1.5,6-0.1l6.7-6.1c1.8-1.7,2.1-4.3,0.7-5.9L1681.6,676.1L1681.6,676.1z
			 M1713.2,647.3L1713.2,647.3c-1.5-1.6-4.1-1.5-6,0.1l-6.7,6.1c-1.8,1.7-2.1,4.3-0.7,5.9l9.6,10.5c1.5,1.6,4.1,1.5,6-0.1l6.6-6.1
			c1.8-1.7,2.1-4.3,0.7-5.9L1713.2,647.3L1713.2,647.3z M1744.8,618.6L1744.8,618.6c-1.5-1.6-4.1-1.5-6,0.1l-6.6,6
			c-1.8,1.7-2.1,4.3-0.7,5.9l9.6,10.5c1.5,1.6,4.1,1.5,6-0.1l6.6-6c1.8-1.7,2.1-4.3,0.7-5.9L1744.8,618.6L1744.8,618.6z
			 M1776.3,589.9L1776.3,589.9c-1.5-1.6-4.1-1.5-6,0.1l-6.7,6.1c-1.8,1.7-2.1,4.3-0.7,5.9l9.6,10.5c1.5,1.6,4.1,1.5,6-0.1l6.7-6.1
			c1.8-1.7,2.1-4.3,0.7-5.9L1776.3,589.9L1776.3,589.9z M1217.6,1435.3L1217.6,1435.3c-1.5-1.6-4.1-1.5-6,0.1l-6.7,6.1
			c-1.8,1.7-2.1,4.3-0.7,5.9l9.6,10.5c1.5,1.6,4.1,1.5,5.9-0.1l6.7-6.1c1.8-1.7,2.1-4.3,0.7-5.9L1217.6,1435.3L1217.6,1435.3z
			 M1249.2,1406.5L1249.2,1406.5c-1.5-1.6-4.1-1.5-6,0.1l-6.7,6.1c-1.8,1.7-2.1,4.3-0.7,5.9l9.6,10.5c1.5,1.6,4.1,1.5,6-0.1l6.7-6.1
			c1.8-1.7,2.1-4.3,0.7-5.9L1249.2,1406.5L1249.2,1406.5z M1280.7,1377.8L1280.7,1377.8c-1.5-1.6-4.1-1.5-5.9,0.1l-6.7,6.1
			c-1.8,1.7-2.1,4.3-0.7,5.9l9.6,10.5c1.5,1.6,4.1,1.5,6-0.1l6.7-6.1c1.8-1.7,2.1-4.3,0.7-5.9L1280.7,1377.8L1280.7,1377.8z
			 M1312.3,1349.1L1312.3,1349.1c-1.5-1.6-4.1-1.5-6,0.1l-6.7,6.1c-1.8,1.7-2.1,4.3-0.7,5.9l9.6,10.5c1.5,1.6,4.1,1.5,6-0.1l6.7-6.1
			c1.8-1.7,2.1-4.3,0.7-5.9L1312.3,1349.1L1312.3,1349.1z M1343.9,1320.4L1343.9,1320.4c-1.5-1.6-4.1-1.5-6,0.1l-6.7,6.1
			c-1.8,1.7-2.1,4.3-0.7,5.9l9.6,10.5c1.5,1.6,4.1,1.5,6-0.1l6.7-6.1c1.8-1.7,2.1-4.3,0.7-5.9L1343.9,1320.4L1343.9,1320.4z
			 M1375.5,1291.6L1375.5,1291.6c-1.5-1.6-4.1-1.5-6,0.1l-6.7,6.1c-1.8,1.7-2.1,4.3-0.7,5.9l9.6,10.5c1.5,1.6,4.1,1.5,6-0.1l6.7-6.1
			c1.8-1.7,2.1-4.3,0.7-5.9L1375.5,1291.6L1375.5,1291.6z M1407,1262.9L1407,1262.9c-1.5-1.6-4.1-1.5-6,0.1l-6.7,6.1
			c-1.8,1.7-2.1,4.3-0.7,5.9l9.6,10.5c1.5,1.6,4.1,1.5,6-0.1l6.7-6.1c1.8-1.7,2.1-4.3,0.7-5.9L1407,1262.9L1407,1262.9z
			 M1438.6,1234.2L1438.6,1234.2c-1.5-1.6-4.1-1.5-6,0.1l-6.7,6.1c-1.8,1.7-2.1,4.3-0.7,5.9l9.6,10.5c1.5,1.6,4.1,1.5,6-0.1l6.7-6.1
			c1.8-1.7,2.1-4.3,0.7-5.9L1438.6,1234.2L1438.6,1234.2z M1470.3,1205.3L1470.3,1205.3c-1.5-1.6-4.1-1.5-6,0.1l-6.7,6.1
			c-1.8,1.7-2.1,4.3-0.7,5.9l9.6,10.5c1.5,1.6,4.1,1.5,6-0.1l6.7-6.1c1.8-1.7,2.1-4.3,0.7-5.9L1470.3,1205.3L1470.3,1205.3z
			 M1501.9,1176.6L1501.9,1176.6c-1.5-1.6-4.1-1.5-6,0.1l-6.7,6.1c-1.8,1.7-2.1,4.3-0.7,5.9l9.6,10.5c1.5,1.6,4.1,1.5,6-0.1l6.7-6.1
			c1.8-1.7,2.1-4.3,0.7-5.9L1501.9,1176.6L1501.9,1176.6z M1533.5,1147.8L1533.5,1147.8c-1.5-1.6-4.1-1.5-6,0.1l-6.7,6.1
			c-1.8,1.7-2.1,4.3-0.7,5.9l9.6,10.5c1.5,1.6,4.1,1.5,6-0.1l6.7-6.1c1.8-1.7,2.1-4.3,0.7-5.9L1533.5,1147.8L1533.5,1147.8z
			 M1565.1,1119.1L1565.1,1119.1c-1.5-1.6-4.1-1.5-6,0.1l-6.7,6.1c-1.8,1.7-2.1,4.3-0.7,5.9l9.6,10.5c1.5,1.6,4.1,1.5,5.9-0.1
			l6.7-6.1c1.8-1.7,2.1-4.3,0.7-5.9L1565.1,1119.1L1565.1,1119.1z M1596.6,1090.4L1596.6,1090.4c-1.5-1.6-4.1-1.5-6,0.1l-6.7,6.1
			c-1.8,1.7-2.1,4.3-0.7,5.9l9.6,10.5c1.5,1.6,4.1,1.5,5.9-0.1l6.7-6.1c1.8-1.7,2.1-4.3,0.7-5.9L1596.6,1090.4L1596.6,1090.4z
			 M1628.2,1061.6L1628.2,1061.6c-1.5-1.6-4.1-1.5-6,0.1l-6.6,6c-1.8,1.7-2.1,4.3-0.7,5.9l9.6,10.5c1.5,1.6,4.1,1.5,6-0.1l6.6-6
			c1.8-1.7,2.1-4.3,0.7-5.9L1628.2,1061.6L1628.2,1061.6z M1659.8,1032.9L1659.8,1032.9c-1.5-1.6-4.1-1.5-6,0.1l-6.7,6.1
			c-1.8,1.7-2.1,4.3-0.7,5.9l9.6,10.5c1.5,1.6,4.1,1.5,6-0.1l6.6-6.1c1.8-1.7,2.1-4.3,0.7-5.9L1659.8,1032.9L1659.8,1032.9z
			 M1691.3,1004.2L1691.3,1004.2c-1.5-1.6-4.1-1.5-6,0.1l-6.7,6.1c-1.8,1.7-2.1,4.3-0.7,5.9l9.6,10.5c1.5,1.6,4.1,1.5,6-0.1l6.7-6.1
			c1.8-1.7,2.1-4.3,0.7-5.9L1691.3,1004.2L1691.3,1004.2z M1723.1,975.3L1723.1,975.3c-1.5-1.6-4.1-1.5-6,0.1l-6.6,6.1
			c-1.8,1.7-2.1,4.3-0.7,5.9l9.6,10.5c1.5,1.6,4.1,1.5,6-0.1l6.6-6.1c1.8-1.7,2.1-4.3,0.7-5.9L1723.1,975.3L1723.1,975.3z
			 M1754.6,946.6L1754.6,946.6c-1.5-1.6-4.1-1.5-6,0.1l-6.7,6.1c-1.8,1.7-2.1,4.3-0.7,5.9l9.6,10.5c1.5,1.6,4.1,1.5,6-0.1l6.7-6.1
			c1.8-1.7,2.1-4.3,0.7-5.9L1754.6,946.6L1754.6,946.6z M1786.2,917.9L1786.2,917.9c-1.5-1.6-4.1-1.5-5.9,0.1l-6.7,6.1
			c-1.8,1.7-2.1,4.3-0.7,5.9l9.6,10.5c1.5,1.6,4.1,1.5,6-0.1l6.7-6.1c1.8-1.7,2.1-4.3,0.7-5.9L1786.2,917.9L1786.2,917.9z
			 M1817.8,889.1L1817.8,889.1c-1.5-1.6-4.1-1.5-6,0.1l-6.6,6c-1.8,1.7-2.1,4.3-0.7,5.9l9.6,10.5c1.5,1.6,4.1,1.5,6-0.1l6.6-6.1
			c1.8-1.7,2.1-4.3,0.7-5.9L1817.8,889.1L1817.8,889.1z M1849.4,860.4L1849.4,860.4c-1.5-1.6-4.1-1.5-6,0.1l-6.7,6.1
			c-1.8,1.7-2.1,4.3-0.7,5.9l9.6,10.5c1.5,1.6,4.1,1.5,6-0.1l6.7-6.1c1.8-1.7,2.1-4.3,0.7-5.9L1849.4,860.4L1849.4,860.4z
			 M1880.9,831.7L1880.9,831.7c-1.5-1.6-4.1-1.5-6,0.1l-6.7,6.1c-1.8,1.7-2.1,4.3-0.7,5.9l9.6,10.5c1.5,1.6,4.1,1.5,6-0.1l6.7-6.1
			c1.8-1.7,2.1-4.3,0.7-5.9L1880.9,831.7L1880.9,831.7z M1912.5,802.9L1912.5,802.9c-1.5-1.6-4.1-1.5-6,0.1l-6.6,6
			c-1.8,1.7-2.1,4.3-0.7,5.9l9.6,10.5c1.5,1.6,4.1,1.5,6-0.1l6.6-6c1.8-1.7,2.1-4.3,0.7-5.9L1912.5,802.9L1912.5,802.9z
			 M1944.1,774.2L1944.1,774.2c-1.5-1.6-4.1-1.5-6,0.1l-6.7,6.1c-1.8,1.7-2.1,4.3-0.7,5.9l9.6,10.5c1.5,1.6,4.1,1.5,6-0.1l6.7-6.1
			c1.8-1.7,2.1-4.3,0.7-5.9L1944.1,774.2z"/>
		<g>
			
				<rect x="1656.4" y="675.8" transform="matrix(0.7396 -0.673 0.673 0.7396 -59.8625 1392.8104)" class="st21" width="227.5" height="195.9"/>
			
				<rect x="1471.7" y="842.5" transform="matrix(0.7396 -0.673 0.673 0.7396 -220.135 1311.9338)" class="st22" width="227.5" height="195.9"/>
			
				<rect x="1287.1" y="1009.3" transform="matrix(0.7396 -0.673 0.673 0.7396 -380.4446 1231.125)" class="st23" width="227.5" height="195.9"/>
			
				<rect x="1102.5" y="1176.1" transform="matrix(0.7396 -0.673 0.673 0.7396 -540.8181 1150.2828)" class="st24" width="227.5" height="195.9"/>
		</g>
	</g>
	<g>
		<path class="st25" d="M195.8,1032.8c-1.6,5.7,1.8,11.6,7.5,13.2l374.2,102.6c5.7,1.6,11.6-1.8,13.2-7.5l69.5-253.6
			c1.6-5.7-1.8-11.6-7.5-13.2L278.5,771.7c-5.7-1.6-11.6,1.8-13.2,7.5L195.8,1032.8z"/>
		
			<rect x="438.7" y="615.8" transform="matrix(0.2644 -0.9644 0.9644 0.2644 -455.7292 1056.2418)" class="st20" width="51.7" height="422.2"/>
		<g>
			
				<rect x="485.4" y="510.8" transform="matrix(0.5404 -0.8414 0.8414 0.5404 -372.4718 761.9219)" class="st20" width="51.7" height="422.2"/>
			<path class="st26" d="M688.9,805.3l-71.4,15.6l-42.2-27.1l71.4-15.5L688.9,805.3L688.9,805.3z M610.5,755L610.5,755l-71.4,15.5
				l-42.1-27l71.4-15.6L610.5,755L610.5,755z M411.7,627.3L411.7,627.3l42.2,27.1L382.5,670l-42.2-27.1L411.7,627.3L411.7,627.3z
				 M532.2,704.7L532.2,704.7l-71.4,15.5l-42.2-27.1l71.4-15.6L532.2,704.7z"/>
		</g>
		<path class="st26" d="M645.2,903.2L609,839.7l-48.4-13.3l36.2,63.5L645.2,903.2L645.2,903.2z M555.5,878.6L555.5,878.6l-36.2-63.5
			l-48.4-13.3l36.2,63.5L555.5,878.6L555.5,878.6z M327.6,816.1L327.6,816.1l48.4,13.3l-36.2-63.5l-48.3-13.3L327.6,816.1
			L327.6,816.1z M465.7,854L465.7,854l-36.2-63.5l-48.4-13.3l36.2,63.5L465.7,854z"/>
		<polygon class="st25" points="661.3,907.6 685.8,818.2 675.5,815.4 561.6,880.3 		"/>
		<path class="st27" d="M608.9,963.7L269,870.5l1.4-5.1l339.9,93.2L608.9,963.7L608.9,963.7z M596.3,1009.5l1.4-5.1l-339.9-93.2
			l-1.4,5.1L596.3,1009.5L596.3,1009.5L596.3,1009.5z M583.8,1055.4l1.4-5.1l-339.9-93.2l-1.4,5.1l113.7,31.2l-9.3,33.9l5.1,1.4
			l9.3-33.9l122.7,33.6l-9.3,33.9l5.1,1.4l9.3-33.9L583.8,1055.4L583.8,1055.4z"/>
		<g>
			<path class="st28" d="M644.4,891.7c-0.8,2.8,0.9,5.8,3.8,6.6c2.8,0.8,5.8-0.9,6.6-3.7s-0.9-5.8-3.7-6.6
				C648.1,887.2,645.1,888.9,644.4,891.7z"/>
			<path class="st1" d="M647.5,891.8l1.4,0.4l0.4-1.4c0.1-0.4,0.6-0.7,1-0.6c0.4,0.1,0.7,0.6,0.6,1l-0.4,1.4l1.4,0.4
				c0.4,0.1,0.7,0.5,0.6,1c-0.1,0.4-0.6,0.7-1,0.5l-1.4-0.4l-0.4,1.4c-0.1,0.4-0.6,0.7-1,0.6c-0.4-0.1-0.7-0.6-0.6-1l0.4-1.4
				l-1.4-0.4c-0.4-0.1-0.7-0.6-0.6-1C646.7,891.9,647.1,891.6,647.5,891.8z"/>
		</g>
		<g>
			<path class="st28" d="M590.2,874c-2.1,2-2.2,5.4-0.2,7.6c2,2.1,5.4,2.2,7.5,0.2s2.2-5.4,0.2-7.5C595.7,872,592.3,872,590.2,874z"
				/>
			<path class="st1" d="M592.9,875.7l1,1.1l1.1-1c0.3-0.3,0.8-0.3,1.1,0s0.3,0.8,0,1.1l-1.1,1l1,1.1c0.3,0.3,0.3,0.8,0,1.1
				s-0.8,0.3-1.1,0l-1-1.1l-1.1,1c-0.3,0.3-0.8,0.3-1.1,0s-0.3-0.8,0-1.1l1.1-1l-1-1.1c-0.3-0.3-0.3-0.8,0-1.1
				C592.1,875.3,592.6,875.4,592.9,875.7z"/>
		</g>
		<g>
			<path class="st28" d="M660.9,832.8c-1.7,2.4-1.2,5.7,1.2,7.5c2.4,1.7,5.7,1.2,7.5-1.2c1.7-2.4,1.2-5.7-1.1-7.5
				C665.9,829.9,662.6,830.4,660.9,832.8z"/>
			<path class="st1" d="M663.8,834l1.2,0.9l0.9-1.2c0.3-0.4,0.8-0.4,1.1-0.2c0.4,0.3,0.4,0.8,0.2,1.1l-0.9,1.2l1.2,0.9
				c0.4,0.3,0.4,0.7,0.2,1.1c-0.3,0.4-0.8,0.4-1.1,0.2l-1.2-0.9l-0.9,1.2c-0.3,0.4-0.8,0.4-1.1,0.2c-0.4-0.3-0.4-0.8-0.2-1.1
				l0.9-1.2l-1.2-0.9c-0.4-0.3-0.4-0.8-0.2-1.1C663,833.8,663.5,833.7,663.8,834z"/>
		</g>
	</g>
	<g>
		<path class="st29" d="M1525.9,984.3c-5.6-4.7-6.4-13.1-1.7-18.7l-6.9-5.8c-4.7,5.6-13.1,6.4-18.7,1.7s-6.4-13.1-1.7-18.7l-6.9-5.8
			c-4.7,5.6-13.1,6.4-18.7,1.7s-6.4-13.1-1.7-18.7l-6.9-5.8c-4.7,5.6-13.1,6.4-18.7,1.7s-6.4-13.1-1.7-18.7l-12.4-10.3
			c-19.1,23-53.6,26.2-76.6,7.1l-290,349.4c23,19.1,26.2,53.6,7.1,76.6l12.6,10.4c4.8-4.1,12-4.2,17,0s6.2,11.2,3.1,16.7l7.3,6
			c4.8-4.1,12-4.2,17,0s6.2,11.2,3.1,16.7l7.3,6c4.8-4.1,12-4.2,17,0s6.2,11.2,3.1,16.7l7.3,6c4.8-4.1,12-4.2,17,0
			s6.2,11.2,3.1,16.7l12.6,10.4c19.1-23,53.6-26.2,76.6-7.1l290-349.4c-23-19.1-26.2-53.6-7.1-76.6l-12.4-10.3
			C1539.9,988.2,1531.5,989,1525.9,984.3z"/>
		<g>
			<text transform="matrix(0.6688 -0.8058 0.7695 0.6386 1250.7671 1315.4182)" class="st0 st30 st31">TICKET</text>
		</g>
		<path class="st0" d="M1096.9,1242.6l260.5-313.9l1.9-2.3l2.3,1.9l163.8,135.9l2.3,1.9l-1.9,2.3l-260.5,313.9l-1.9,2.3l-2.3-1.9
			l-163.8-135.9l-2.3-1.9L1096.9,1242.6L1096.9,1242.6z M1360.1,934.7l-256.8,309.4l159.2,132.2l256.8-309.4L1360.1,934.7z"/>
	</g>
	<g>
		<polygon class="st32" points="567.2,940.8 760.3,908 953.5,875.3 989.4,1407.1 849,1430.9 708.5,1454.7 		"/>
		<polygon class="st33" points="983.5,1318.8 989.4,1407.1 849,1430.9 708.5,1454.7 685,1369.3 		"/>
		<g>
			<path class="st33" d="M592.6,936.5c15.2-2.6,30.5-5.2,45.8-7.8c21.5,89.2,41,170.2,58.7,244.1c16.3,67.5,31.2,129.7,45,186.9
				c-11.7,2-23.4,4-35.1,5.9c-15.2-57-31.7-118.9-49.6-186.1C637.7,1106,616.2,1025.3,592.6,936.5z"/>
			<path class="st33" d="M688,920.3c15.2-2.6,30.5-5.2,45.8-7.8c16.9,90,32.2,171.7,46.1,246.2c12.8,68.1,24.5,130.8,35.3,188.6
				c-11.7,2-23.4,4-35.1,6c-12.2-57.5-25.5-119.9-40-187.8C724.3,1091.3,707,1009.9,688,920.3z"/>
			<path class="st33" d="M783.4,904.1c15.2-2.6,30.5-5.2,45.8-7.8c12.2,90.8,23.4,173.2,33.5,248.3c9.3,68.7,17.8,132,25.6,190.2
				c-11.7,2-23.4,4-35.1,6c-9.3-58-19.3-121-30.3-189.4C811,1076.6,797.9,994.5,783.4,904.1z"/>
			<path class="st33" d="M878.8,887.9c15.3-2.6,30.6-5.2,45.9-7.8c7.6,91.6,14.6,174.7,20.9,250.4c5.8,69.3,11.1,133.1,16,191.9
				c-11.7,2-23.4,4-35.2,6c-6.3-58.5-13.2-122-20.6-191C897.6,1061.9,888.7,979.1,878.8,887.9z"/>
		</g>
		<path class="st33" d="M566,932.4L951.8,867c1.7-0.3,3.4,0.9,3.7,2.6l2,11.7c0.3,1.7-0.9,3.4-2.6,3.7l-385.8,65.4
			c-1.7,0.3-3.4-0.9-3.7-2.6l-2-11.7C563.1,934.4,564.3,932.7,566,932.4z"/>
		<g>
			<path class="st27" d="M811.1,813.8c12.5,0.5,23.3,9.6,25.5,22.4c2.5,14.6-7.4,28.5-22,31c-6.1,1-12-0.1-17.1-2.7
				c-4.3,4.9-10.2,8.3-17.1,9.5c-16,2.7-31.2-8.1-34-24.1c-2.4-14.4,6.1-28.2,19.5-32.8c-0.7-11.4,7.3-21.8,18.8-23.7
				c12.3-2.1,24.1,6.2,26.1,18.6C811,812.5,811.1,813.2,811.1,813.8z"/>
			<path class="st34" d="M774.5,826.4c8.7-1.5,16.8,3.4,18.1,10.9s-4.8,14.8-13.5,16.3s-16.8-3.4-18.1-10.9
				C759.8,835.2,765.8,827.9,774.5,826.4z"/>
			<path class="st34" d="M785.3,801.4c8.7-1.5,16.8,3.4,18.1,10.9s-4.8,14.8-13.5,16.3s-16.8-3.4-18.1-10.9
				C770.6,810.1,776.6,802.8,785.3,801.4z"/>
			<path class="st34" d="M809.8,826.6c8.7-1.5,16.8,3.4,18.1,10.9s-4.8,14.8-13.5,16.3s-16.8-3.4-18.1-10.9
				C795,835.4,801,828.1,809.8,826.6z"/>
		</g>
		<g>
			<path class="st27" d="M631.1,884.9c12.5,0.5,23.3,9.6,25.5,22.4c2.5,14.6-7.4,28.5-22,31c-6.1,1-12-0.1-17.1-2.7
				c-4.3,4.9-10.2,8.3-17.1,9.5c-16,2.7-31.2-8.1-34-24.1c-2.4-14.4,6.1-28.2,19.5-32.8c-0.7-11.4,7.3-21.8,18.8-23.7
				c12.3-2.1,24.1,6.2,26.1,18.6C631,883.6,631.1,884.2,631.1,884.9z"/>
			<path class="st34" d="M594.5,897.5c8.7-1.5,16.8,3.4,18.1,10.9s-4.8,14.8-13.5,16.3s-16.8-3.4-18.1-10.9S585.8,899,594.5,897.5z"
				/>
			<path class="st34" d="M605.3,872.4c8.7-1.5,16.8,3.4,18.1,10.9s-4.8,14.8-13.5,16.3s-16.8-3.4-18.1-10.9S596.6,873.9,605.3,872.4
				z"/>
			<path class="st34" d="M629.7,897.7c8.7-1.5,16.8,3.4,18.1,10.9s-4.8,14.8-13.5,16.3s-16.8-3.4-18.1-10.9
				C615,906.4,621,899.2,629.7,897.7z"/>
		</g>
		<g>
			<path class="st27" d="M684.3,852.7c12.5,0.5,23.3,9.6,25.5,22.4c2.5,14.6-7.4,28.5-22,31c-6.1,1-12-0.1-17.1-2.8
				c-4.3,4.9-10.2,8.3-17.1,9.5c-16,2.7-31.2-8.1-34-24.1c-2.4-14.4,6.1-28.2,19.5-32.8c-0.7-11.4,7.3-21.8,18.8-23.7
				c12.3-2.1,24.1,6.2,26.1,18.6C684.2,851.4,684.3,852.1,684.3,852.7z"/>
			<path class="st34" d="M647.7,865.3c8.7-1.5,16.8,3.4,18.1,10.9s-4.8,14.8-13.5,16.3s-16.8-3.4-18.1-10.9
				C633,874.1,639,866.8,647.7,865.3z"/>
			<path class="st34" d="M658.5,840.3c8.7-1.5,16.8,3.4,18.1,10.9s-4.8,14.8-13.5,16.3s-16.8-3.4-18.1-10.9
				C643.8,849,649.8,841.8,658.5,840.3z"/>
			<path class="st34" d="M683,865.5c8.7-1.5,16.8,3.4,18.1,10.9s-4.8,14.8-13.5,16.3s-16.8-3.4-18.1-10.9S674.2,867,683,865.5z"/>
		</g>
		<g>
			<path class="st27" d="M732.4,843.1c12.5,0.5,23.3,9.6,25.5,22.4c2.5,14.6-7.4,28.5-22,31c-6.1,1-12-0.1-17.1-2.7
				c-4.3,4.9-10.2,8.3-17.1,9.5c-16,2.7-31.2-8.1-34-24.1c-2.4-14.4,6.1-28.2,19.5-32.8c-0.7-11.4,7.3-21.8,18.8-23.7
				c12.3-2.1,24.1,6.2,26.1,18.6C732.3,841.8,732.4,842.4,732.4,843.1z"/>
			<path class="st34" d="M695.8,855.7c8.7-1.5,16.8,3.4,18.1,10.9s-4.8,14.8-13.5,16.3s-16.8-3.4-18.1-10.9S687.1,857.2,695.8,855.7
				z"/>
			<path class="st34" d="M706.6,830.6c8.7-1.5,16.8,3.4,18.1,10.9s-4.8,14.8-13.5,16.3s-16.8-3.4-18.1-10.9
				C691.8,839.4,697.9,832.1,706.6,830.6z"/>
			<path class="st34" d="M731,855.9c8.7-1.5,16.8,3.4,18.1,10.9s-4.8,14.8-13.5,16.3s-16.8-3.4-18.1-10.9
				C716.3,864.7,722.3,857.4,731,855.9z"/>
		</g>
		<g>
			<path class="st27" d="M715.8,864.3c12.5,0.5,23.3,9.6,25.5,22.4c2.5,14.6-7.4,28.5-22,31c-6.1,1-12-0.1-17.1-2.7
				c-4.3,4.9-10.2,8.3-17.1,9.5c-16,2.7-31.2-8.1-34-24.1c-2.4-14.4,6.1-28.2,19.5-32.8c-0.7-11.4,7.3-21.8,18.8-23.7
				c12.3-2.1,24.1,6.2,26.1,18.6C715.6,863,715.7,863.6,715.8,864.3z"/>
			<path class="st34" d="M679.1,876.9c8.7-1.5,16.8,3.4,18.1,10.9s-4.8,14.8-13.5,16.3s-16.8-3.4-18.1-10.9
				C664.4,885.6,670.4,878.3,679.1,876.9z"/>
			<path class="st34" d="M689.9,851.8c8.7-1.5,16.8,3.4,18.1,10.9s-4.8,14.8-13.5,16.3s-16.8-3.4-18.1-10.9
				C675.2,860.6,681.2,853.3,689.9,851.8z"/>
			<path class="st34" d="M714.4,877.1c8.7-1.5,16.8,3.4,18.1,10.9s-4.8,14.8-13.5,16.3s-16.8-3.4-18.1-10.9
				C699.6,885.8,705.7,878.5,714.4,877.1z"/>
		</g>
		<g>
			<path class="st27" d="M787.6,853.8c12.5,0.5,23.3,9.6,25.5,22.4c2.5,14.6-7.4,28.5-22,31c-6.1,1-12-0.1-17.1-2.7
				c-4.3,4.9-10.2,8.3-17.1,9.5c-16,2.7-31.2-8.1-34-24.1c-2.4-14.4,6.1-28.2,19.5-32.8c-0.7-11.4,7.3-21.8,18.8-23.7
				c12.3-2.1,24.1,6.2,26.1,18.6C787.5,852.5,787.5,853.2,787.6,853.8z"/>
			<path class="st34" d="M751,866.4c8.7-1.5,16.8,3.4,18.1,10.9s-4.8,14.8-13.5,16.3s-16.8-3.4-18.1-10.9S742.3,867.9,751,866.4z"/>
			<path class="st34" d="M761.8,841.4c8.7-1.5,16.8,3.4,18.1,10.9s-4.8,14.8-13.5,16.3s-16.8-3.4-18.1-10.9
				C747,850.1,753.1,842.8,761.8,841.4z"/>
			<path class="st34" d="M786.2,866.6c8.7-1.5,16.8,3.4,18.1,10.9s-4.8,14.8-13.5,16.3s-16.8-3.4-18.1-10.9
				C771.5,875.4,777.5,868.1,786.2,866.6z"/>
		</g>
		<g>
			<path class="st27" d="M854.7,823.7c12.5,0.5,23.3,9.6,25.5,22.4c2.5,14.6-7.4,28.5-22,31c-6.1,1-12-0.1-17.1-2.7
				c-4.3,4.9-10.2,8.3-17.1,9.5c-16,2.7-31.2-8.1-34-24.1c-2.4-14.4,6.1-28.2,19.5-32.8c-0.7-11.4,7.3-21.8,18.8-23.7
				c12.3-2.1,24.1,6.2,26.1,18.6C854.6,822.4,854.7,823.1,854.7,823.7z"/>
			<path class="st34" d="M818.1,836.3c8.7-1.5,16.8,3.4,18.1,10.9s-4.8,14.8-13.5,16.3s-16.8-3.4-18.1-10.9S809.4,837.8,818.1,836.3
				z"/>
			<path class="st34" d="M828.9,811.2c8.7-1.5,16.8,3.4,18.1,10.9s-4.8,14.8-13.5,16.3s-16.8-3.4-18.1-10.9
				C814.1,820,820.2,812.7,828.9,811.2z"/>
			<path class="st34" d="M853.3,836.5c8.7-1.5,16.8,3.4,18.1,10.9s-4.8,14.8-13.5,16.3s-16.8-3.4-18.1-10.9
				C838.6,845.3,844.6,838,853.3,836.5z"/>
		</g>
		<g>
			<path class="st27" d="M870.1,840.1c12.5,0.5,23.3,9.6,25.5,22.4c2.5,14.6-7.4,28.5-22,31c-6.1,1-12-0.1-17.1-2.7
				c-4.3,4.9-10.2,8.3-17.1,9.5c-16,2.7-31.2-8.1-34-24.1c-2.4-14.4,6.1-28.2,19.5-32.8c-0.7-11.4,7.3-21.8,18.8-23.7
				c12.3-2.1,24.1,6.2,26.1,18.6C870,838.8,870.1,839.5,870.1,840.1z"/>
			<path class="st34" d="M833.5,852.8c8.7-1.5,16.8,3.4,18.1,10.9s-4.8,14.8-13.5,16.3s-16.8-3.4-18.1-10.9
				C818.7,861.5,824.8,854.2,833.5,852.8z"/>
			<path class="st34" d="M844.3,827.7c8.7-1.5,16.8,3.4,18.1,10.9s-4.8,14.8-13.5,16.3s-16.8-3.4-18.1-10.9
				C829.5,836.4,835.6,829.2,844.3,827.7z"/>
			<path class="st34" d="M868.7,852.9c8.7-1.5,16.8,3.4,18.1,10.9s-4.8,14.8-13.5,16.3s-16.8-3.4-18.1-10.9
				C854,861.7,860,854.4,868.7,852.9z"/>
		</g>
		<g>
			<path class="st27" d="M914.8,821.3c12.5,0.5,23.3,9.6,25.5,22.4c2.5,14.6-7.4,28.5-22,31c-6.1,1-12-0.1-17.1-2.7
				c-4.3,4.9-10.2,8.3-17.1,9.5c-16,2.7-31.2-8.1-34-24.1c-2.4-14.4,6.1-28.2,19.5-32.8c-0.7-11.4,7.3-21.8,18.8-23.7
				c12.3-2.1,24.1,6.2,26.1,18.6C914.6,820,914.7,820.7,914.8,821.3z"/>
			<path class="st34" d="M878.1,833.9c8.7-1.5,16.8,3.4,18.1,10.9s-4.8,14.8-13.5,16.3s-16.8-3.4-18.1-10.9
				C863.4,842.7,869.4,835.4,878.1,833.9z"/>
			<path class="st34" d="M889,808.9c8.7-1.5,16.8,3.4,18.1,10.9s-4.8,14.8-13.5,16.3s-16.8-3.4-18.1-10.9
				C874.2,817.6,880.2,810.4,889,808.9z"/>
			<path class="st34" d="M913.4,834.1c8.7-1.5,16.8,3.4,18.1,10.9s-4.8,14.8-13.5,16.3s-16.8-3.4-18.1-10.9
				C898.6,842.9,904.7,835.6,913.4,834.1z"/>
		</g>
		<g>
			<path class="st27" d="M923.9,825.8c12.5,0.5,23.3,9.6,25.5,22.4c2.5,14.6-7.4,28.5-22,31c-6.1,1-12-0.1-17.1-2.7
				c-4.3,4.9-10.2,8.3-17.1,9.5c-16,2.7-31.2-8.1-34-24.1c-2.4-14.4,6.1-28.2,19.5-32.8c-0.7-11.4,7.3-21.8,18.8-23.7
				c12.3-2.1,24.1,6.2,26.2,18.6C923.7,824.5,923.8,825.2,923.9,825.8z"/>
			<path class="st34" d="M887.2,838.4c8.7-1.5,16.8,3.4,18.1,10.9s-4.8,14.8-13.5,16.3s-16.8-3.4-18.1-10.9
				C872.5,847.2,878.5,839.9,887.2,838.4z"/>
			<path class="st34" d="M898.1,813.4c8.7-1.5,16.8,3.4,18.1,10.9s-4.8,14.8-13.5,16.3s-16.8-3.4-18.1-10.9
				C883.3,822.1,889.3,814.8,898.1,813.4z"/>
			<path class="st34" d="M922.5,838.6c8.7-1.5,16.8,3.4,18.1,10.9s-4.8,14.8-13.5,16.3s-16.8-3.4-18.1-10.9
				C907.7,847.4,913.8,840.1,922.5,838.6z"/>
		</g>
		<g>
			<path class="st27" d="M884.2,790.7c10.6,0.4,19.9,8.2,21.7,19.1c2.1,12.5-6.3,24.3-18.8,26.4c-5.2,0.9-10.3-0.1-14.6-2.3
				c-3.7,4.1-8.7,7.1-14.6,8.1c-13.7,2.3-26.7-6.9-29-20.6c-2.1-12.3,5.2-24.1,16.6-28c-0.6-9.8,6.2-18.6,16.1-20.3
				c10.5-1.8,20.5,5.3,22.3,15.8C884.1,789.6,884.2,790.2,884.2,790.7z"/>
			<path class="st34" d="M853,801.5c7.4-1.3,14.4,2.9,15.4,9.3c1.1,6.4-4.1,12.6-11.5,13.9c-7.4,1.3-14.4-2.9-15.4-9.3
				C840.4,809,845.5,802.8,853,801.5z"/>
			<path class="st34" d="M862.2,780.1c7.4-1.3,14.4,2.9,15.4,9.3c1.1,6.4-4.1,12.6-11.5,13.9c-7.4,1.3-14.4-2.9-15.4-9.3
				C849.6,787.6,854.8,781.4,862.2,780.1z"/>
			<path class="st34" d="M883,801.7c7.4-1.3,14.4,2.9,15.4,9.3c1.1,6.4-4.1,12.6-11.5,13.9c-7.4,1.3-14.4-2.9-15.4-9.3
				C870.5,809.1,875.6,802.9,883,801.7z"/>
		</g>
		<g>
			<path class="st27" d="M824.3,797.8c12.5,0.5,23.3,9.6,25.5,22.4c2.5,14.6-7.4,28.5-22,31c-6.1,1-12-0.1-17.1-2.7
				c-4.3,4.9-10.2,8.3-17.1,9.5c-16,2.7-31.2-8.1-34-24.1c-2.4-14.4,6.1-28.2,19.5-32.8c-0.7-11.4,7.3-21.8,18.8-23.7
				c12.3-2.1,24.1,6.2,26.1,18.6C824.2,796.5,824.3,797.2,824.3,797.8z"/>
			<path class="st34" d="M787.7,810.5c8.7-1.5,16.8,3.4,18.1,10.9s-4.8,14.8-13.5,16.3s-16.8-3.4-18.1-10.9
				C773,819.2,779,811.9,787.7,810.5z"/>
			<path class="st34" d="M798.5,785.4c8.7-1.5,16.8,3.4,18.1,10.9s-4.8,14.8-13.5,16.3s-16.8-3.4-18.1-10.9
				C783.8,794.2,789.8,786.9,798.5,785.4z"/>
			<path class="st34" d="M823,810.6c8.7-1.5,16.8,3.4,18.1,10.9s-4.8,14.8-13.5,16.3s-16.8-3.4-18.1-10.9
				C808.2,819.4,814.2,812.1,823,810.6z"/>
		</g>
		<g>
			<path class="st27" d="M788,798.9c12.5,0.5,23.3,9.6,25.5,22.4c2.5,14.6-7.4,28.5-22,31c-6.1,1-12-0.1-17.1-2.7
				c-4.3,4.9-10.2,8.3-17.1,9.5c-16,2.7-31.2-8.1-34-24.1c-2.4-14.4,6.1-28.2,19.5-32.8c-0.7-11.4,7.3-21.8,18.8-23.7
				c12.3-2.1,24.1,6.2,26.1,18.6C787.9,797.6,788,798.2,788,798.9z"/>
			<path class="st34" d="M751.4,811.5c8.7-1.5,16.8,3.4,18.1,10.9s-4.8,14.8-13.5,16.3s-16.8-3.4-18.1-10.9
				C736.6,820.2,742.7,812.9,751.4,811.5z"/>
			<path class="st34" d="M762.2,786.4c8.7-1.5,16.8,3.4,18.1,10.9s-4.8,14.8-13.5,16.3s-16.8-3.4-18.1-10.9S753.5,787.9,762.2,786.4
				z"/>
			<path class="st34" d="M786.6,811.7c8.7-1.5,16.8,3.4,18.1,10.9s-4.8,14.8-13.5,16.3s-16.8-3.4-18.1-10.9
				C771.9,820.4,777.9,813.1,786.6,811.7z"/>
		</g>
		<g>
			<path class="st27" d="M657.6,832.4c12.5,0.5,23.3,9.6,25.5,22.4c2.5,14.6-7.4,28.5-22,31c-6.1,1-12-0.1-17.1-2.7
				c-4.3,4.9-10.2,8.3-17.1,9.5c-16,2.7-31.2-8.1-34-24.1c-2.4-14.4,6.1-28.2,19.5-32.8c-0.7-11.4,7.3-21.8,18.8-23.7
				c12.3-2.1,24.1,6.2,26.1,18.6C657.5,831.1,657.6,831.8,657.6,832.4z"/>
			<path class="st34" d="M621,845c8.7-1.5,16.8,3.4,18.1,10.9s-4.8,14.8-13.5,16.3s-16.8-3.4-18.1-10.9
				C606.3,853.8,612.3,846.5,621,845z"/>
			<path class="st34" d="M631.8,820c8.7-1.5,16.8,3.4,18.1,10.9s-4.8,14.8-13.5,16.3s-16.8-3.4-18.1-10.9
				C617.1,828.7,623.1,821.4,631.8,820z"/>
			<path class="st34" d="M656.3,845.2c8.7-1.5,16.8,3.4,18.1,10.9s-4.8,14.8-13.5,16.3s-16.8-3.4-18.1-10.9S647.5,846.7,656.3,845.2
				z"/>
		</g>
		<g>
			<path class="st27" d="M670.5,824.8c12.5,0.5,23.3,9.6,25.5,22.4c2.5,14.6-7.4,28.5-22,31c-6.1,1-12-0.1-17.1-2.8
				c-4.3,4.9-10.2,8.3-17.1,9.5c-16,2.7-31.2-8.1-34-24.1c-2.4-14.4,6.1-28.2,19.5-32.8c-0.7-11.4,7.3-21.8,18.8-23.7
				c12.3-2.1,24.1,6.2,26.1,18.6C670.4,823.5,670.5,824.1,670.5,824.8z"/>
			<path class="st34" d="M633.9,837.4c8.7-1.5,16.8,3.4,18.1,10.9s-4.8,14.8-13.5,16.3s-16.8-3.4-18.1-10.9
				C619.2,846.2,625.2,838.9,633.9,837.4z"/>
			<path class="st34" d="M644.7,812.3c8.7-1.5,16.8,3.4,18.1,10.9s-4.8,14.8-13.5,16.3s-16.8-3.4-18.1-10.9
				C630,821.1,636,813.8,644.7,812.3z"/>
			<path class="st34" d="M669.2,837.6c8.7-1.5,16.8,3.4,18.1,10.9s-4.8,14.8-13.5,16.3s-16.8-3.4-18.1-10.9
				C654.4,846.4,660.4,839.1,669.2,837.6z"/>
		</g>
		<g>
			<path class="st27" d="M715.8,791.5c12.5,0.5,23.3,9.6,25.5,22.4c2.5,14.6-7.4,28.5-22,31c-6.1,1-12-0.1-17.1-2.8
				c-4.3,4.9-10.2,8.3-17.1,9.5c-16,2.7-31.2-8.1-34-24.1c-2.4-14.4,6.1-28.2,19.5-32.8c-0.7-11.4,7.3-21.8,18.8-23.7
				c12.3-2.1,24.1,6.2,26.1,18.6C715.7,790.2,715.8,790.9,715.8,791.5z"/>
			<path class="st34" d="M679.2,804.2c8.7-1.5,16.8,3.4,18.1,10.9s-4.8,14.8-13.5,16.3s-16.8-3.4-18.1-10.9
				C664.4,812.9,670.5,805.6,679.2,804.2z"/>
			<path class="st34" d="M690,779.1c8.7-1.5,16.8,3.4,18.1,10.9s-4.8,14.8-13.5,16.3s-16.8-3.4-18.1-10.9
				C675.3,787.9,681.3,780.6,690,779.1z"/>
			<path class="st34" d="M714.5,804.3c8.7-1.5,16.8,3.4,18.1,10.9s-4.8,14.8-13.5,16.3s-16.8-3.4-18.1-10.9S705.7,805.8,714.5,804.3
				z"/>
		</g>
		<g>
			<path class="st27" d="M746.7,775.3c12.5,0.5,23.3,9.6,25.5,22.4c2.5,14.6-7.4,28.5-22,31c-6.1,1-12-0.1-17.1-2.7
				c-4.3,4.9-10.2,8.3-17.1,9.5c-16,2.7-31.2-8.1-34-24.1c-2.4-14.4,6.1-28.2,19.5-32.8c-0.7-11.4,7.3-21.8,18.8-23.7
				c12.3-2.1,24.1,6.2,26.1,18.6C746.6,774,746.7,774.6,746.7,775.3z"/>
			<path class="st34" d="M710.1,787.9c8.7-1.5,16.8,3.4,18.1,10.9s-4.8,14.8-13.5,16.3s-16.8-3.4-18.1-10.9
				C695.4,796.7,701.4,789.4,710.1,787.9z"/>
			<path class="st34" d="M720.9,762.8c8.7-1.5,16.8,3.4,18.1,10.9s-4.8,14.8-13.5,16.3s-16.8-3.4-18.1-10.9
				C706.2,771.6,712.2,764.3,720.9,762.8z"/>
			<path class="st34" d="M745.4,788.1c8.7-1.5,16.8,3.4,18.1,10.9s-4.8,14.8-13.5,16.3s-16.8-3.4-18.1-10.9
				C730.6,796.8,736.6,789.6,745.4,788.1z"/>
		</g>
		<g>
			<path class="st27" d="M820.5,766.2c9.1,0.3,17,7,18.6,16.3c1.8,10.7-5.4,20.8-16.1,22.6c-4.4,0.8-8.8,0-12.5-2
				c-3.1,3.5-7.5,6.1-12.5,6.9c-11.7,2-22.8-5.9-24.8-17.6c-1.8-10.5,4.4-20.6,14.2-23.9c-0.5-8.3,5.3-15.9,13.7-17.3
				c9-1.5,17.6,4.5,19.1,13.5C820.4,765.2,820.5,765.7,820.5,766.2z"/>
			<path class="st34" d="M793.8,775.4c6.4-1.1,12.3,2.5,13.2,8s-3.5,10.8-9.8,11.9c-6.4,1.1-12.3-2.5-13.2-8
				C783,781.8,787.4,776.5,793.8,775.4z"/>
			<path class="st34" d="M801.7,757.1c6.4-1.1,12.3,2.5,13.2,8s-3.5,10.8-9.8,11.9c-6.4,1.1-12.3-2.5-13.2-8
				C790.9,763.5,795.3,758.2,801.7,757.1z"/>
			<path class="st34" d="M819.5,775.5c6.4-1.1,12.3,2.5,13.2,8s-3.5,10.8-9.8,11.9c-6.4,1.1-12.3-2.5-13.2-8
				C808.7,781.9,813.1,776.6,819.5,775.5z"/>
		</g>
		<g>
			<path class="st27" d="M784.7,765.1c10,0.4,18.7,7.7,20.4,18c2,11.7-5.9,22.9-17.7,24.9c-4.9,0.8-9.6-0.1-13.7-2.2
				c-3.4,3.9-8.2,6.7-13.7,7.6c-12.9,2.2-25.1-6.5-27.3-19.4c-2-11.6,4.9-22.6,15.6-26.3c-0.6-9.2,5.9-17.5,15.1-19.1
				c9.9-1.7,19.3,5,21,14.9C784.6,764,784.7,764.6,784.7,765.1z"/>
			<path class="st34" d="M755.3,775.2c7-1.2,13.5,2.7,14.5,8.8c1,6-3.8,11.9-10.8,13.1c-7,1.2-13.5-2.7-14.5-8.8
				S748.3,776.4,755.3,775.2z"/>
			<path class="st34" d="M764,755.1c7-1.2,13.5,2.7,14.5,8.8c1,6-3.8,11.9-10.8,13.1c-7,1.2-13.5-2.7-14.5-8.8S757,756.3,764,755.1z
				"/>
			<path class="st34" d="M783.6,775.3c7-1.2,13.5,2.7,14.5,8.8c1,6-3.8,11.9-10.8,13.1c-7,1.2-13.5-2.7-14.5-8.8
				C771.8,782.4,776.6,776.5,783.6,775.3z"/>
		</g>
	</g>
	<polygon class="st35" points="1908.6,1337.6 2031,1204.4 1533.9,1204.4 1533.9,1452.7 2031,1452.7 	"/>
	<polygon class="st36" points="1532.5,1204.2 1698.9,1280.6 1698.9,1452.7 1533.9,1452.7 	"/>
	<polygon class="st35" points="122.4,1337.4 0,1204.2 497.1,1204.2 497.1,1452.5 0,1452.5 	"/>
	<polygon class="st36" points="498.5,1204 332.1,1280.4 331.7,1452.5 497.1,1452.5 	"/>
	<rect x="331.7" y="1280.6" class="st37" width="1367.3" height="248.3"/>
	<g class="st38">
		<path class="st39" d="M460.9,1442l17.3,4.2c-3.6,13.5-10.1,23.9-19.5,31c-9.4,7.1-20.9,10.7-34.5,10.7c-14.1,0-25.5-2.7-34.3-8.2
			c-8.8-5.5-15.5-13.4-20.1-23.7c-4.6-10.4-6.9-21.5-6.9-33.4c0-13,2.6-24.3,7.8-33.9c5.2-9.7,12.6-17,22.2-22
			c9.6-5,20.1-7.5,31.6-7.5c13,0,24,3.2,32.9,9.5c8.9,6.3,15.1,15.3,18.6,26.8l-17,3.8c-3-9.1-7.4-15.7-13.2-19.8
			c-5.8-4.1-13-6.2-21.7-6.2c-10,0-18.4,2.3-25.1,6.9c-6.7,4.6-11.5,10.7-14.2,18.5c-2.7,7.7-4.1,15.7-4.1,23.9
			c0,10.6,1.6,19.8,4.8,27.7c3.2,7.9,8.3,13.8,15.1,17.7c6.8,3.9,14.2,5.9,22.2,5.9c9.7,0,17.9-2.7,24.6-8
			C454,1460.4,458.5,1452.5,460.9,1442z"/>
		<path class="st39" d="M494.1,1425c0-20.7,5.8-36.9,17.4-48.6c11.6-11.7,26.6-17.5,45-17.5c12,0,22.9,2.7,32.6,8.2
			c9.7,5.5,17,13.2,22.1,23c5.1,9.8,7.6,21,7.6,33.4c0,12.6-2.7,23.9-8,33.9c-5.3,10-12.9,17.5-22.7,22.6s-20.3,7.7-31.7,7.7
			c-12.3,0-23.3-2.8-32.9-8.5c-9.7-5.7-17-13.4-22-23.2C496.6,1446.3,494.1,1435.9,494.1,1425z M511.9,1425.3
			c0,15,4.2,26.8,12.7,35.5c8.5,8.6,19.1,13,31.8,13c13,0,23.7-4.4,32.1-13.1c8.4-8.7,12.6-21.1,12.6-37.1c0-10.1-1.8-19-5.4-26.6
			c-3.6-7.6-8.8-13.4-15.7-17.6c-6.9-4.2-14.7-6.2-23.3-6.2c-12.2,0-22.7,4-31.5,12C516.3,1393.1,511.9,1406.5,511.9,1425.3z"/>
		<path class="st39" d="M641.1,1485.7v-124.6h49.2c8.7,0,15.3,0.4,19.8,1.2c6.4,1,11.8,3,16.1,5.8c4.3,2.9,7.8,6.9,10.5,12
			c2.6,5.2,4,10.8,4,17c0,10.6-3.5,19.6-10.6,26.9c-7.1,7.3-19.8,11-38.3,11h-33.5v50.6H641.1z M658.4,1420.3h33.7
			c11.2,0,19.1-2,23.8-5.9c4.7-4,7-9.5,7-16.7c0-5.2-1.4-9.7-4.1-13.4s-6.4-6.2-10.9-7.3c-2.9-0.7-8.3-1.1-16.1-1.1h-33.4V1420.3z"
			/>
		<path class="st39" d="M799.4,1485.7v-52.8l-50.3-71.8h21l25.7,37.6c4.7,7,9.2,14,13.3,21.1c3.9-6.5,8.7-13.8,14.2-22l25.3-36.6
			h20.1l-52,71.8v52.8H799.4z"/>
		<path class="st39" d="M867.4,1520.3v-11h106.1v11H867.4z"/>
		<path class="st39" d="M985,1485.7v-124.6h26l30.9,88.2c2.8,8.2,4.9,14.4,6.2,18.4c1.5-4.5,3.8-11.2,6.9-20l31.2-86.7h23.2v124.6
			h-16.6v-104.2l-37.9,104.2h-15.6l-37.7-106v106H985z"/>
		<path class="st39" d="M1132.1,1425c0-20.7,5.8-36.9,17.4-48.6c11.6-11.7,26.6-17.5,45-17.5c12,0,22.9,2.7,32.6,8.2
			c9.7,5.5,17,13.2,22.1,23c5.1,9.8,7.6,21,7.6,33.4c0,12.6-2.7,23.9-8,33.9c-5.3,10-12.9,17.5-22.7,22.6s-20.3,7.7-31.7,7.7
			c-12.3,0-23.3-2.8-32.9-8.5c-9.7-5.7-17-13.4-22-23.2C1134.6,1446.3,1132.1,1435.9,1132.1,1425z M1149.9,1425.3
			c0,15,4.2,26.8,12.7,35.5c8.5,8.6,19.1,13,31.8,13c13,0,23.7-4.4,32.1-13.1c8.4-8.7,12.6-21.1,12.6-37.1c0-10.1-1.8-19-5.4-26.6
			c-3.6-7.6-8.8-13.4-15.7-17.6c-6.9-4.2-14.7-6.2-23.3-6.2c-12.2,0-22.7,4-31.5,12C1154.3,1393.1,1149.9,1406.5,1149.9,1425.3z"/>
		<path class="st39" d="M1316.3,1485.7l-50.5-124.6h18.7l33.9,90.5c2.7,7.3,5,14,6.9,20.4c2-6.8,4.4-13.6,7-20.4l35.2-90.5h17.6
			l-51.1,124.6H1316.3z"/>
		<path class="st39" d="M1403.5,1485.7v-124.6h17.3v124.6H1403.5z"/>
		<path class="st39" d="M1451.6,1485.7v-124.6h94.3v14.7h-77v38.1h72.2v14.6h-72.2v42.4h80.1v14.7H1451.6z"/>
		<path class="st39" d="M1566.9,1445.7l16.3-1.4c0.8,6.2,2.6,11.3,5.4,15.3c2.8,4,7.2,7.2,13.1,9.7c5.9,2.5,12.6,3.7,20,3.7
			c6.6,0,12.4-0.9,17.4-2.8c5-1.9,8.8-4.4,11.3-7.7c2.5-3.3,3.7-6.8,3.7-10.7c0-3.9-1.2-7.3-3.6-10.2c-2.4-2.9-6.3-5.4-11.7-7.3
			c-3.5-1.3-11.2-3.3-23.2-6.1c-12-2.7-20.4-5.3-25.2-7.8c-6.2-3.1-10.9-7-13.9-11.6c-3.1-4.6-4.6-9.8-4.6-15.5
			c0-6.3,1.9-12.2,5.6-17.6c3.7-5.5,9.2-9.6,16.4-12.4c7.2-2.8,15.2-4.2,23.9-4.2c9.7,0,18.2,1.5,25.6,4.5c7.4,3,13.1,7.3,17,13.1
			c4,5.8,6.1,12.3,6.4,19.6l-16.5,1.2c-0.9-7.9-3.9-13.8-9-17.8c-5.1-4-12.7-6-22.7-6c-10.4,0-18,1.8-22.8,5.5
			c-4.8,3.7-7.2,8.1-7.2,13.2c0,4.5,1.7,8.2,5.1,11c3.3,2.9,12,5.8,26,8.9c14,3,23.7,5.7,28.9,7.9c7.6,3.3,13.2,7.6,16.8,12.7
			c3.6,5.1,5.4,11,5.4,17.7c0,6.6-2,12.9-6,18.7c-4,5.9-9.7,10.4-17.1,13.7c-7.4,3.3-15.8,4.9-25.1,4.9c-11.8,0-21.7-1.6-29.7-4.9
			s-14.2-8.2-18.8-14.8C1569.5,1461.4,1567.1,1454,1566.9,1445.7z"/>
	</g>
	<g>
		<path class="st40" d="M795.4,982.2c17.9-5.8,34.5-7.3,47.6,12.2c13.2,19.5,10.7,26.2,3.9,30.1c-6.8,3.9-25.1-14.3-38.6-5.6
			c-13.4,8.7-174.8,268.2-174.8,268.2l-17.2-63.6C654.1,1164.6,780.3,987.1,795.4,982.2z"/>
		<path class="st40" d="M927,946.5c-18.4,4-33.4,11.1-35,34.6c-1.5,23.5,4,28,11.8,27.9c7.9-0.1,14.5-25,30.5-24.3
			s286.3,143.2,286.3,143.2l-17.2-63.6C1141.1,1032.6,942.5,943.2,927,946.5z"/>
		<path class="st41" d="M930.4,1138.3l24.8-6.7l248.2-67.3l28.9,106.6c4.2,15.4-5,31.5-20.4,35.7L995,1265.4
			c-15.4,4.2-31.5-5-35.7-20.4l-20.5-75.6c-6.5,1.4-13.2,3-20,4.8c-7.3,2-14.3,4.1-21.1,6.4l20.5,75.6c4.2,15.4-5,31.5-20.4,35.7
			l-216.9,58.8c-15.4,4.2-31.5-5-35.7-20.4l-11.7-43l-17.2-63.6l249.6-67.7l23.4-6.3L930.4,1138.3z"/>
		
			<rect x="665" y="1211.3" transform="matrix(0.9652 -0.2616 0.2616 0.9652 -301.1585 245.3572)" class="st42" width="212.1" height="85.2"/>
		
			<rect x="979.1" y="1126.1" transform="matrix(0.9652 -0.2616 0.2616 0.9652 -267.9395 324.559)" class="st32" width="212.1" height="85.2"/>
	</g>
	<polygon class="st37" points="624.2,490.5 650,537.3 702.5,547.4 666,586.4 672.6,639.3 624.2,616.7 575.9,639.3 582.5,586.4 
		546,547.4 598.4,537.3 	"/>
	<polygon class="st43" points="1560.2,425.2 1577.1,455.7 1611.2,462.3 1587.4,487.7 1591.8,522.3 1560.2,507.5 1528.7,522.3 
		1533,487.7 1509.2,462.3 1543.4,455.7 	"/>
	<polygon class="st44" points="1151.2,950 1161.6,968.8 1182.7,972.9 1168,988.6 1170.7,1010 1151.2,1000.8 1131.7,1010 
		1134.4,988.6 1119.7,972.9 1140.8,968.8 	"/>
	<polygon class="st22" points="1708.4,1048.6 1727,1082.4 1764.9,1089.7 1738.5,1117.8 1743.3,1156.1 1708.4,1139.7 1673.4,1156.1 
		1678.2,1117.8 1651.8,1089.7 1689.7,1082.4 	"/>
	<polygon class="st45" points="401.8,1060.1 420.5,1093.8 458.4,1101.1 432,1129.3 436.8,1167.6 401.8,1151.2 366.9,1167.6 
		371.7,1129.3 345.3,1101.1 383.2,1093.8 	"/>
</g>
</svg>
